<?xml version="1.0" standalone="no"?>
<!DOCTYPE svg PUBLIC "-//W3C//DTD SVG 20010904//EN"
 "http://www.w3.org/TR/2001/REC-SVG-20010904/DTD/svg10.dtd">
<svg version="1.0" xmlns="http://www.w3.org/2000/svg"
 width="400.000000pt" height="400.000000pt" viewBox="0 0 400.000000 400.000000"
 preserveAspectRatio="xMidYMid meet">
<metadata>
Created by potrace 1.11, written by Peter Selinger 2001-2013
</metadata>
<g transform="translate(0.000000,400.000000) scale(0.100000,-0.100000)"
fill="#000000" stroke="none">
<path d="M0 3352 c0 -505 3 -651 13 -661 10 -11 10 -14 0 -18 -10 -4 -13 -87
-13 -369 0 -290 3 -364 12 -358 10 6 10 5 1 -8 -10 -12 -13 -224 -13 -976 l0
-962 1121 0 c775 0 1118 3 1114 10 -7 12 12 40 27 40 6 0 7 -11 4 -25 l-7 -26
323 4 c362 5 422 9 446 30 9 8 33 18 52 22 19 4 44 12 55 19 26 16 55 9 55
-13 0 -19 -24 -45 -50 -54 -8 -2 182 -5 423 -6 l437 -1 0 171 c0 106 -5 187
-12 212 -10 32 -10 41 0 45 9 3 12 49 12 172 l0 168 -30 7 c-32 7 -35 12 -21
34 5 8 14 10 21 6 15 -10 30 12 29 45 0 25 0 25 -16 -5 -14 -24 -18 -26 -21
-12 -2 11 -13 17 -32 17 -46 0 -53 -19 -46 -122 3 -51 6 -162 6 -246 1 -134 3
-153 16 -148 8 3 13 2 10 -3 -3 -4 -27 -14 -53 -21 -27 -7 -63 -19 -81 -27
-19 -8 -36 -12 -40 -9 -3 4 4 23 16 44 19 34 20 40 6 53 -8 9 -12 23 -8 32 9
23 18 21 34 -8 10 -19 10 -28 1 -39 -9 -11 -8 -17 5 -30 15 -15 17 -14 37 11
12 16 27 34 34 41 15 15 16 35 6 72 -7 24 -8 23 -13 -10 -4 -28 -9 -34 -25
-32 -28 5 -31 10 -17 32 7 11 12 26 12 34 0 8 5 16 11 18 11 4 28 67 29 105 0
12 -14 38 -30 57 -17 18 -28 40 -25 48 3 8 0 28 -7 44 -6 16 -13 34 -13 39 -4
21 -18 45 -27 45 -5 0 -6 -5 -3 -11 4 -6 -3 -21 -15 -34 -28 -30 -20 -60 20
-74 43 -14 37 -25 -10 -17 -37 6 -41 4 -51 -21 -5 -15 -8 -36 -5 -48 9 -35 -1
-43 -124 -109 -25 -13 -54 -33 -64 -45 -11 -12 -27 -21 -37 -21 -10 0 -21 -5
-24 -10 -3 -5 -17 -10 -30 -10 -28 0 -59 -40 -91 -119 -24 -59 -40 -73 -50
-46 -4 9 2 25 14 38 27 29 47 80 33 85 -6 2 -11 12 -11 22 0 10 -5 20 -12 22
-7 3 -9 12 -4 24 7 18 8 18 24 -3 19 -25 32 -20 50 20 16 38 16 53 -1 38 -21
-17 -29 0 -11 21 12 12 21 15 29 8 8 -7 18 -1 31 18 27 36 35 60 24 67 -18 11
-11 35 10 35 26 0 56 56 40 75 -27 33 -145 -20 -152 -68 -2 -16 -9 -21 -23
-18 -11 2 -32 3 -47 4 -16 0 -28 3 -28 6 1 9 92 68 117 75 45 14 114 97 244
296 89 137 99 156 99 190 0 18 -27 97 -61 175 -52 123 -64 145 -90 155 -18 8
-29 20 -29 32 0 12 -4 17 -12 12 -6 -4 0 8 14 27 36 48 44 89 20 96 -22 5 -42
43 -42 78 0 14 -18 45 -42 74 -57 66 -82 65 -141 -4 -43 -50 -127 -209 -127
-240 0 -9 -13 -21 -29 -26 -16 -6 -32 -17 -35 -25 -3 -7 -12 -11 -20 -8 -21 8
-48 -39 -44 -78 2 -26 -1 -32 -14 -30 -9 1 -22 -7 -28 -18 -7 -13 -7 -20 0
-21 5 -1 15 -3 20 -4 6 -1 15 -3 20 -4 24 -3 7 -18 -20 -18 -16 0 -30 4 -30 9
0 4 -4 8 -10 8 -5 0 -15 -18 -21 -40 -8 -28 -18 -40 -30 -40 -33 0 -33 -42 0
-105 17 -32 36 -62 43 -67 10 -6 10 -10 -2 -18 -21 -14 -30 -12 -30 5 0 8 -6
15 -13 15 -8 0 -19 22 -26 55 -11 49 -31 84 -31 54 0 -6 -7 -17 -16 -24 -16
-11 -16 -15 -2 -43 16 -32 14 -42 -9 -42 -8 0 -13 12 -13 29 0 17 -4 32 -9 36
-10 6 -9 32 4 78 10 36 -1 77 -21 77 -13 0 -15 7 -10 32 5 24 0 41 -19 70 -25
38 -39 43 -82 32 -31 -8 -29 -19 6 -34 36 -15 72 -50 50 -50 -8 0 -23 7 -33
15 -29 22 -36 19 -36 -15 0 -38 -14 -38 -30 0 -10 24 -15 28 -26 19 -18 -15
-20 11 -2 29 9 9 7 12 -11 12 -19 0 -116 -50 -226 -117 -11 -7 -32 -17 -46
-23 -26 -11 -43 -40 -40 -67 1 -7 -3 -13 -10 -13 -6 0 -9 8 -6 19 3 11 -1 22
-9 25 -7 3 -11 11 -8 19 5 15 71 47 96 47 9 0 20 6 26 13 6 6 38 26 71 42 33
17 61 33 61 37 0 10 -57 -1 -90 -16 -30 -14 -60 -10 -60 8 0 8 -16 24 -35 37
-19 13 -35 27 -35 32 0 4 -6 7 -14 7 -7 0 -19 7 -26 15 -9 11 -16 12 -25 5
-16 -13 -28 2 -19 24 4 12 0 16 -15 16 -12 0 -21 6 -21 14 0 7 -15 25 -34 40
-28 21 -39 24 -60 16 -20 -7 -24 -6 -19 5 3 8 0 15 -6 15 -6 0 -11 7 -11 15 0
27 -48 18 -64 -12 -11 -20 -15 -23 -16 -10 0 15 -11 22 -33 18 -5 -1 -6 3 -3
8 3 5 -3 11 -15 14 -15 4 -41 -15 -111 -84 -50 -49 -93 -89 -96 -89 -3 0 -15
-8 -26 -18 -11 -9 -8 -2 8 17 17 21 26 43 24 55 -3 12 4 30 15 41 19 20 19 20
12 -15 l-7 -35 46 45 c25 24 46 53 46 64 0 11 8 28 18 39 13 16 14 19 2 15
-12 -4 -15 4 -16 43 0 27 3 49 8 49 5 0 6 5 3 10 -4 6 -1 19 6 28 7 9 -1 4
-19 -12 -18 -17 -32 -24 -32 -18 0 7 6 15 14 18 8 3 17 12 20 20 3 9 1 12 -4
9 -6 -3 -10 0 -10 9 0 8 7 13 18 11 9 -1 23 3 31 9 8 6 17 10 20 8 3 -2 7 2
10 9 3 9 -6 7 -24 -5 -28 -18 -28 -18 -23 2 4 12 0 26 -8 33 -8 6 -14 7 -14 2
0 -6 -10 -15 -22 -22 l-23 -12 23 5 c24 5 28 -4 10 -22 -17 -17 -38 -15 -38 3
0 22 -14 19 -49 -11 -30 -25 -31 -25 -31 -5 0 12 6 21 16 21 8 0 12 4 9 10 -3
5 -1 10 4 10 15 0 14 57 -1 62 -8 3 -8 9 1 24 7 10 10 12 8 4 -2 -8 3 -21 10
-28 8 -8 11 -23 8 -36 -6 -19 -5 -20 6 -2 8 13 14 15 18 7 6 -9 15 -8 36 3 20
10 35 12 52 5 14 -5 29 -7 34 -3 5 3 9 0 9 -5 0 -6 7 -11 16 -11 10 0 14 5 10
16 -3 8 -2 13 3 10 5 -3 17 6 27 19 27 36 40 31 14 -5 -12 -17 -17 -30 -11
-30 6 0 11 5 11 11 0 5 4 7 10 4 5 -3 10 1 10 9 0 9 5 16 11 16 5 0 7 -4 4
-10 -3 -6 1 -7 9 -4 9 3 21 25 27 48 6 22 15 52 20 65 8 19 7 22 -5 18 -23 -9
-12 27 12 38 12 5 20 15 18 22 -3 6 2 14 11 17 12 5 14 1 8 -21 -4 -16 -8 -35
-9 -44 -1 -8 -9 -31 -18 -50 -28 -60 -31 -79 -14 -79 9 0 16 -7 16 -16 0 -8 5
-12 10 -9 6 3 14 -4 19 -17 5 -13 16 -30 25 -37 12 -10 14 -17 5 -27 -6 -8
-15 -11 -20 -8 -5 3 -9 -2 -9 -10 0 -9 5 -16 11 -16 5 0 7 -5 3 -11 -3 -6 -2
-14 4 -18 7 -4 5 -13 -5 -26 -13 -16 -15 -17 -10 -2 14 39 -10 14 -30 -33 -21
-46 -25 -50 -50 -45 l-28 6 25 -14 c17 -11 31 -12 49 -6 24 10 151 134 185
182 10 15 22 27 26 27 4 0 37 28 73 61 52 48 67 68 67 89 0 22 6 30 31 39 17
6 28 15 25 20 -4 5 -1 11 5 13 5 2 27 31 47 65 20 34 73 122 117 195 44 73 82
144 85 158 3 14 10 25 15 26 38 3 135 56 135 73 0 8 -8 24 -17 35 -17 20 -17
20 1 6 19 -14 19 -13 13 34 -4 27 -14 60 -22 72 -8 13 -15 37 -15 54 0 17 -4
29 -9 26 -5 -4 -11 -2 -13 3 -1 5 -23 21 -48 35 -36 21 -40 26 -22 26 13 0 32
-5 43 -10 16 -9 21 -7 28 12 7 18 4 28 -11 45 -20 22 -21 54 -3 96 5 13 2 17
-14 17 -16 0 -21 6 -21 25 0 14 -16 45 -35 71 -38 49 -44 88 -20 120 13 17 12
21 -17 45 -27 23 -32 33 -33 76 -1 31 -9 63 -23 87 -32 54 -29 104 11 162 30
45 32 52 23 92 -8 39 -15 46 -85 88 -42 26 -87 55 -100 65 -23 18 -67 19
-1282 19 l-1259 0 0 -648z m1655 558 c-3 -5 -10 -10 -16 -10 -5 0 -9 5 -9 10
0 6 7 10 16 10 8 0 12 -4 9 -10z m-1015 -330 c0 -5 -5 -10 -11 -10 -5 0 -7 5
-4 10 3 6 8 10 11 10 2 0 4 -4 4 -10z m720 -44 c0 -3 -4 -8 -10 -11 -5 -3 -10
-1 -10 4 0 6 5 11 10 11 6 0 10 -2 10 -4z m965 -56 c-3 -5 -11 -10 -16 -10 -6
0 -7 5 -4 10 3 6 11 10 16 10 6 0 7 -4 4 -10z m-2045 -30 c0 -5 -5 -10 -11
-10 -5 0 -7 5 -4 10 3 6 8 10 11 10 2 0 4 -4 4 -10z m2420 -24 c0 -3 -4 -8
-10 -11 -5 -3 -10 -1 -10 4 0 6 5 11 10 11 6 0 10 -2 10 -4z m-500 -36 c0 -5
-4 -10 -10 -10 -5 0 -10 5 -10 10 0 6 5 10 10 10 6 0 10 -4 10 -10z m-25 -30
c-3 -5 -10 -10 -16 -10 -5 0 -9 5 -9 10 0 6 7 10 16 10 8 0 12 -4 9 -10z m545
-40 c0 -5 -5 -10 -11 -10 -5 0 -7 5 -4 10 3 6 8 10 11 10 2 0 4 -4 4 -10z
m-60 -10 c0 -5 -5 -10 -11 -10 -5 0 -7 5 -4 10 3 6 8 10 11 10 2 0 4 -4 4 -10z
m-760 -18 c0 -12 -3 -12 -15 -2 -19 16 -65 -1 -65 -24 0 -13 -66 -33 -76 -23
-8 8 34 38 55 40 11 1 23 7 26 14 7 19 75 14 75 -5z m245 8 c9 -14 -21 -18
-38 -5 -16 11 -15 13 8 13 14 0 28 -4 30 -8z m405 -20 c0 -5 -5 -10 -11 -10
-5 0 -7 5 -4 10 3 6 8 10 11 10 2 0 4 -4 4 -10z m-800 -10 c0 -5 -4 -10 -10
-10 -5 0 -10 5 -10 10 0 6 5 10 10 10 6 0 10 -4 10 -10z m185 0 c3 -5 -1 -10
-9 -10 -9 0 -16 5 -16 10 0 6 4 10 9 10 6 0 13 -4 16 -10z m395 6 c0 -3 -4 -8
-10 -11 -5 -3 -10 -1 -10 4 0 6 5 11 10 11 6 0 10 -2 10 -4z m45 -6 c-3 -5
-14 -10 -23 -10 -15 0 -15 2 -2 10 20 13 33 13 25 0z m-672 -37 c-7 -2 -19 -2
-25 0 -7 3 -2 5 12 5 14 0 19 -2 13 -5z m77 -7 c0 -3 -4 -8 -10 -11 -5 -3 -10
-1 -10 4 0 6 5 11 10 11 6 0 10 -2 10 -4z m930 0 c0 -3 -4 -8 -10 -11 -5 -3
-10 -1 -10 4 0 6 5 11 10 11 6 0 10 -2 10 -4z m-1138 -38 c-7 -7 -12 -8 -12
-2 0 14 12 26 19 19 2 -3 -1 -11 -7 -17z m888 12 c0 -5 -4 -10 -10 -10 -5 0
-10 5 -10 10 0 6 5 10 10 10 6 0 10 -4 10 -10z m245 -20 c-4 -6 -1 -17 5 -25
9 -11 9 -15 1 -15 -6 0 -11 5 -11 11 0 8 -5 8 -15 -1 -22 -18 -18 -30 9 -30
31 0 56 -10 56 -21 0 -5 -11 -6 -26 -3 -18 5 -29 1 -38 -12 -13 -17 -14 -17
-25 4 -13 24 -50 29 -68 11 -8 -8 -14 -5 -23 10 -10 20 -9 21 13 16 19 -5 29
0 46 21 11 15 21 24 21 20 0 -4 10 0 22 8 26 18 42 21 33 6z m-2035 -4 c0 -3
-4 -8 -10 -11 -5 -3 -10 -1 -10 4 0 6 5 11 10 11 6 0 10 -2 10 -4z m1015 -6
c-3 -5 -11 -10 -16 -10 -6 0 -7 5 -4 10 3 6 11 10 16 10 6 0 7 -4 4 -10z m75
6 c0 -3 -4 -8 -10 -11 -5 -3 -10 -1 -10 4 0 6 5 11 10 11 6 0 10 -2 10 -4z
m648 -14 c6 -18 -15 -14 -22 4 -4 10 -1 14 6 12 6 -2 14 -10 16 -16z m-78 -12
c-8 -5 -17 -7 -19 -4 -3 3 1 9 9 14 8 5 17 7 19 4 3 -3 -1 -9 -9 -14z m250 16
c0 -3 -4 -8 -10 -11 -5 -3 -10 -1 -10 4 0 6 5 11 10 11 6 0 10 -2 10 -4z
m-968 -28 c-7 -7 -12 -8 -12 -2 0 14 12 26 19 19 2 -3 -1 -11 -7 -17z m1173
12 c-27 -12 -35 -12 -35 0 0 6 12 10 28 9 24 0 25 -1 7 -9z m-1289 -51 c-38
-45 -46 -65 -22 -56 8 3 31 9 50 13 20 3 36 12 36 19 0 13 48 30 57 21 3 -3
-6 -11 -21 -17 -34 -16 -34 -31 1 -23 22 6 25 4 20 -10 -8 -20 -8 -20 37 -1
20 8 36 11 36 6 0 -5 3 -17 7 -27 5 -14 2 -16 -22 -12 -16 3 -58 1 -94 -4 -36
-6 -97 -10 -134 -9 -85 2 -107 -4 -107 -31 0 -12 -3 -18 -7 -15 -4 4 -20 -5
-36 -20 -17 -16 -27 -22 -23 -15 4 7 2 12 -6 12 -20 0 -108 -58 -114 -75 -4
-8 -13 -15 -20 -15 -8 0 -19 -10 -24 -22 -8 -21 -9 -21 -10 -3 l-1 20 -17 -20
c-20 -23 -62 -49 -62 -39 0 4 18 23 40 41 23 20 37 40 33 46 -3 7 -3 9 1 6 4
-4 18 4 31 17 13 13 33 24 43 24 11 0 23 7 26 15 3 9 22 23 42 31 20 8 34 18
31 21 -3 3 -27 -7 -53 -21 -39 -22 -44 -23 -30 -7 10 11 35 26 55 32 20 7 30
14 24 16 -25 9 -12 21 28 27 23 4 48 13 56 21 18 18 59 20 67 3 3 -8 25 9 57
45 59 65 81 70 25 6z m188 36 c-4 -8 -13 -15 -21 -15 -13 0 -13 3 -3 15 7 8
16 15 21 15 5 0 6 -7 3 -15z m456 11 c0 -3 -4 -8 -10 -11 -5 -3 -10 -1 -10 4
0 6 5 11 10 11 6 0 10 -2 10 -4z m90 -16 c0 -5 -4 -10 -10 -10 -5 0 -10 5 -10
10 0 6 5 10 10 10 6 0 10 -4 10 -10z m310 0 c0 -5 -4 -10 -10 -10 -5 0 -10 5
-10 10 0 6 5 10 10 10 6 0 10 -4 10 -10z m-980 -10 c0 -5 -4 -10 -10 -10 -5 0
-10 5 -10 10 0 6 5 10 10 10 6 0 10 -4 10 -10z m757 -16 c-9 -9 -28 6 -21 18
4 6 10 6 17 -1 6 -6 8 -13 4 -17z m493 23 c0 -2 -10 -12 -21 -23 -22 -19 -22
-19 -8 4 12 19 29 30 29 19z m-1470 -17 c0 -5 -4 -10 -10 -10 -5 0 -10 5 -10
10 0 6 5 10 10 10 6 0 10 -4 10 -10z m790 0 c12 -8 11 -10 -7 -10 -13 0 -23 5
-23 10 0 13 11 13 30 0z m-387 -25 c-5 -13 -23 -22 -23 -11 0 15 14 35 21 31
4 -3 6 -12 2 -20z m541 9 c4 -9 5 -19 2 -21 -6 -6 -46 20 -46 29 0 15 38 8 44
-8z m80 1 c-4 -8 -1 -15 5 -15 19 0 12 -15 -14 -26 -33 -16 -38 -7 -13 27 24
32 30 36 22 14z m106 5 c0 -5 -4 -10 -8 -10 -5 0 -19 -10 -31 -21 -19 -18 -25
-19 -32 -8 -6 10 1 19 24 31 37 20 47 22 47 8z m60 -12 c0 -13 -32 -6 -37 9
-3 7 3 9 16 6 12 -3 21 -10 21 -15z m-2410 2 c0 -5 -5 -10 -11 -10 -5 0 -7 5
-4 10 3 6 8 10 11 10 2 0 4 -4 4 -10z m710 0 c0 -5 -5 -10 -11 -10 -5 0 -7 5
-4 10 3 6 8 10 11 10 2 0 4 -4 4 -10z m710 -11 c0 -5 -7 -9 -15 -9 -15 0 -20
12 -9 23 8 8 24 -1 24 -14z m580 7 c0 -3 -4 -8 -10 -11 -5 -3 -10 -1 -10 4 0
6 5 11 10 11 6 0 10 -2 10 -4z m85 -6 c3 -5 -1 -10 -10 -10 -9 0 -13 5 -10 10
3 6 8 10 10 10 2 0 7 -4 10 -10z m-225 -15 c0 -8 -6 -15 -14 -15 -20 0 -29 17
-14 23 22 9 28 7 28 -8z m-120 -6 c0 -20 -21 -49 -32 -43 -7 4 -6 9 3 15 9 5
4 10 -17 15 l-29 8 30 7 c44 10 45 10 45 -2z m63 4 c-7 -2 -19 -2 -25 0 -7 3
-2 5 12 5 14 0 19 -2 13 -5z m295 -21 c-4 -15 -1 -18 19 -14 13 2 26 8 29 13
3 5 14 9 25 9 11 0 17 -4 14 -10 -4 -6 5 -10 21 -10 49 0 14 -15 -39 -16 -68
-2 -67 -2 -67 -19 0 -8 -5 -15 -11 -15 -5 0 -7 5 -4 10 3 6 -5 10 -19 10 -14
0 -28 -4 -31 -10 -3 -5 -11 -10 -16 -10 -12 0 22 49 34 50 5 0 15 7 23 15 20
20 27 19 22 -3z m-1042 -20 c-18 -18 -29 -12 -20 11 3 9 12 13 21 10 13 -5 13
-8 -1 -21z m1554 -22 c5 0 10 -4 10 -8 0 -10 -79 -10 -81 1 -5 27 -4 33 3 44
6 8 16 4 33 -13 13 -13 29 -24 35 -24z m-967 33 c-7 -2 -19 -2 -25 0 -7 3 -2
5 12 5 14 0 19 -2 13 -5z m167 -13 c-12 -23 -30 -27 -30 -6 0 8 8 17 18 19 9
3 18 5 20 6 1 0 -2 -8 -8 -19z m-120 0 c0 -5 -7 -10 -15 -10 -8 0 -15 5 -15
10 0 6 7 10 15 10 8 0 15 -4 15 -10z m295 -4 c12 -12 12 -16 0 -26 -8 -7 -15
-11 -16 -9 -4 18 -5 49 -2 49 3 0 11 -6 18 -14z m305 4 c0 -5 9 -10 20 -10 13
0 18 -5 14 -15 -8 -19 9 -19 96 1 65 15 127 16 90 1 -8 -3 -28 -8 -43 -11 -15
-4 -25 -11 -22 -16 3 -6 1 -10 -4 -10 -6 0 -11 4 -11 9 0 7 -32 0 -119 -25
-17 -5 -22 -4 -17 4 5 8 -1 12 -15 12 -18 0 -19 3 -9 15 6 8 8 20 4 26 -5 9
-11 7 -20 -6 -17 -23 -28 -14 -19 14 7 22 55 31 55 11z m-444 -26 c-9 -8 -20
-12 -26 -9 -19 12 -10 25 16 25 23 0 24 -1 10 -16z m284 -4 c0 -5 -4 -10 -10
-10 -5 0 -10 5 -10 10 0 6 5 10 10 10 6 0 10 -4 10 -10z m129 -46 c17 11 13
-10 -5 -25 -13 -10 -17 -10 -25 2 -5 8 -9 17 -9 22 0 4 -7 7 -16 7 -10 0 -14
-6 -11 -14 3 -8 -1 -17 -9 -20 -9 -4 -14 2 -15 17 0 14 -2 17 -6 7 -6 -18 -33
-40 -47 -40 -6 0 -2 7 8 15 11 8 17 18 13 21 -10 11 13 34 34 34 11 0 19 5 19
12 0 6 13 -1 29 -16 16 -16 34 -25 40 -22z m-1489 16 c0 -5 -5 -10 -11 -10 -5
0 -7 5 -4 10 3 6 8 10 11 10 2 0 4 -4 4 -10z m540 6 c0 -3 -4 -8 -10 -11 -5
-3 -10 -1 -10 4 0 6 5 11 10 11 6 0 10 -2 10 -4z m605 -6 c3 -5 1 -10 -4 -10
-6 0 -11 5 -11 10 0 6 2 10 4 10 3 0 8 -4 11 -10z m38 -10 c-3 -11 -12 -20
-19 -20 -12 0 -12 4 -2 20 7 11 16 20 19 20 4 0 5 -9 2 -20z m-963 6 c0 -2 -8
-10 -17 -17 -16 -13 -17 -12 -4 4 13 16 21 21 21 13z m1080 -4 c0 -13 -41 -44
-48 -36 -4 4 -1 9 6 11 6 3 12 11 12 19 0 8 7 14 15 14 8 0 15 -3 15 -8z
m-1030 -12 c0 -5 -5 -10 -11 -10 -5 0 -7 5 -4 10 3 6 8 10 11 10 2 0 4 -4 4
-10z m970 0 c0 -5 -12 -21 -27 -35 -17 -16 -24 -28 -18 -33 12 -8 12 -18 -2
-52 l-11 -25 -7 26 c-5 22 -11 25 -37 21 -21 -3 -29 -1 -24 7 4 6 13 11 20 11
7 0 21 9 31 20 11 12 13 20 6 20 -7 0 -9 5 -5 12 6 9 9 9 12 0 5 -17 32 4 32
24 0 8 7 14 15 14 8 0 15 -4 15 -10z m100 0 c0 -5 -4 -10 -10 -10 -5 0 -10 5
-10 10 0 6 5 10 10 10 6 0 10 -4 10 -10z m-883 -6 c-3 -3 -12 -4 -19 -1 -8 3
-5 6 6 6 11 1 17 -2 13 -5z m636 -18 c17 3 15 1 -5 -8 -16 -7 -28 -18 -28 -25
0 -7 -11 -13 -25 -13 -14 0 -25 4 -25 10 0 5 11 12 25 16 14 3 25 14 26 23 0
9 3 11 5 5 3 -7 15 -10 27 -8z m837 4 c0 -5 -7 -10 -15 -10 -8 0 -15 5 -15 10
0 6 7 10 15 10 8 0 15 -4 15 -10z m-1720 -4 c0 -3 -4 -8 -10 -11 -5 -3 -10 -1
-10 4 0 6 5 11 10 11 6 0 10 -2 10 -4z m800 -6 c0 -5 -8 -10 -17 -10 -15 0
-16 2 -3 10 19 12 20 12 20 0z m320 -14 c0 -11 -19 -15 -25 -6 -3 5 1 10 9 10
9 0 16 -2 16 -4z m74 -7 c-3 -5 -13 -9 -23 -9 -9 0 -22 -5 -29 -12 -16 -16
-16 -1 0 16 14 15 61 19 52 5z m-463 -9 c6 0 7 -4 4 -10 -10 -15 -32 -12 -39
6 -5 12 -2 15 10 10 8 -3 20 -6 25 -6z m49 -22 c0 -7 -13 -13 -30 -14 -27 -1
-28 0 -12 12 22 17 42 18 42 2z m979 -20 c28 -64 30 -78 15 -78 -8 0 -17 13
-20 30 -4 17 -10 30 -15 30 -5 0 -9 11 -9 25 0 35 13 31 29 -7z m-438 -1 c-13
-13 -26 -3 -16 12 3 6 11 8 17 5 6 -4 6 -10 -1 -17z m-1358 -3 c-3 -8 -16 -20
-30 -25 -13 -5 -27 -19 -32 -32 -5 -12 -17 -29 -27 -37 -17 -13 -18 -13 -8 0
6 8 14 27 18 42 4 18 19 35 44 47 20 11 38 20 39 21 1 0 0 -7 -4 -16z m1097 6
c0 -5 -5 -10 -11 -10 -5 0 -7 5 -4 10 3 6 8 10 11 10 2 0 4 -4 4 -10z m413 0
c7 0 6 -5 -2 -12 -11 -11 -14 -10 -18 0 -4 10 -8 10 -19 1 -8 -6 -14 -7 -14
-2 0 16 13 24 28 18 7 -3 19 -5 25 -5z m-808 -10 c-3 -5 -11 -10 -16 -10 -6 0
-7 5 -4 10 3 6 11 10 16 10 6 0 7 -4 4 -10z m-102 -42 c-9 -15 -23 -8 -23 12
0 17 2 19 14 8 8 -7 12 -16 9 -20z m82 3 c-3 -6 -11 -11 -17 -11 -6 0 -6 6 2
15 14 17 26 13 15 -4z m1042 -17 c-9 -10 -38 16 -31 28 4 6 13 4 22 -6 9 -8
13 -19 9 -22z m-1837 12 c0 -3 -4 -8 -10 -11 -5 -3 -10 -1 -10 4 0 6 5 11 10
11 6 0 10 -2 10 -4z m755 -16 c-3 -5 -11 -10 -16 -10 -6 0 -7 5 -4 10 3 6 11
10 16 10 6 0 7 -4 4 -10z m405 -34 c1 -18 54 -83 65 -79 13 4 20 -44 13 -79
-6 -28 -12 -28 -25 -2 -6 13 -7 24 -2 24 13 0 -2 29 -44 88 -22 28 -44 52 -50
52 -7 0 -6 4 2 9 17 11 41 3 41 -13z m-1180 11 c0 -2 -12 -14 -27 -28 -20 -18
-24 -19 -13 -4 18 24 40 42 40 32z m1480 -57 c0 -5 -4 -10 -10 -10 -5 0 -10 5
-10 10 0 6 5 10 10 10 6 0 10 -4 10 -10z m417 -12 c-3 -8 -6 -5 -6 6 -1 11 2
17 5 13 3 -3 4 -12 1 -19z m-1962 -17 c-3 -6 -15 -11 -26 -11 -11 0 -17 5 -14
10 4 6 10 8 15 5 5 -3 12 0 15 6 4 5 9 8 12 5 3 -2 2 -9 -2 -15z m1382 3 c-3
-3 -12 -4 -19 -1 -8 3 -5 6 6 6 11 1 17 -2 13 -5z m-1577 -28 c0 -2 -8 -10
-17 -17 -16 -13 -17 -12 -4 4 13 16 21 21 21 13z m120 1 c0 -2 -14 -16 -32
-33 -30 -28 -30 -17 0 19 13 15 32 23 32 14z m1190 -7 c0 -5 -5 -10 -11 -10
-5 0 -7 5 -4 10 3 6 8 10 11 10 2 0 4 -4 4 -10z m-1408 -42 c-12 -13 -22 -17
-22 -11 0 15 31 46 38 38 3 -3 -4 -15 -16 -27z m320 0 c-7 -7 -12 -8 -12 -2 0
14 12 26 19 19 2 -3 -1 -11 -7 -17z m1123 12 c3 -5 -3 -10 -15 -10 -12 0 -18
5 -15 10 3 6 10 10 15 10 5 0 12 -4 15 -10z m272 -12 c-3 -8 -6 -5 -6 6 -1 11
2 17 5 13 3 -3 4 -12 1 -19z m193 12 c0 -5 -5 -10 -11 -10 -5 0 -7 5 -4 10 3
6 8 10 11 10 2 0 4 -4 4 -10z m-2250 -10 c0 -5 -5 -10 -11 -10 -5 0 -7 5 -4
10 3 6 8 10 11 10 2 0 4 -4 4 -10z m1830 -6 c0 -9 -5 -14 -12 -12 -18 6 -21
28 -4 28 9 0 16 -7 16 -16z m77 10 c-3 -3 -12 -4 -19 -1 -8 3 -5 6 6 6 11 1
17 -2 13 -5z m-767 -8 c0 -3 -4 -8 -10 -11 -5 -3 -10 -1 -10 4 0 6 5 11 10 11
6 0 10 -2 10 -4z m900 -16 c0 -5 -4 -10 -10 -10 -5 0 -10 5 -10 10 0 6 5 10
10 10 6 0 10 -4 10 -10z m-1990 -4 c0 -3 -4 -8 -10 -11 -5 -3 -10 -1 -10 4 0
6 5 11 10 11 6 0 10 -2 10 -4z m330 0 c0 -3 -4 -8 -10 -11 -5 -3 -10 -1 -10 4
0 6 5 11 10 11 6 0 10 -2 10 -4z m1760 -7 c0 -5 -11 -9 -25 -9 -33 0 -33 15 0
16 14 1 25 -2 25 -7z m-1757 -36 c-3 -16 -6 -36 -5 -45 0 -10 -4 -18 -9 -18
-6 0 -7 5 -4 10 3 6 1 10 -4 10 -6 0 -4 15 6 35 20 42 26 45 16 8z m149 -5
c-7 -7 -12 -8 -12 -2 0 14 12 26 19 19 2 -3 -1 -11 -7 -17z m931 2 c-3 -11 -7
-20 -9 -20 -2 0 -8 9 -14 20 -9 17 -8 20 9 20 14 0 18 -5 14 -20z m491 -22
c-3 -57 -5 -59 -14 -18 -5 22 -5 40 2 47 14 18 14 18 12 -29z m-1664 22 c0 -5
-4 -10 -10 -10 -5 0 -10 5 -10 10 0 6 5 10 10 10 6 0 10 -4 10 -10z m184 2 c3
-5 -8 -19 -25 -31 l-31 -23 13 24 c10 19 27 37 36 38 1 0 4 -4 7 -8z m1066
-17 c7 -9 8 -15 2 -15 -5 0 -12 7 -16 15 -3 8 -4 15 -2 15 2 0 9 -7 16 -15z
m50 11 c0 -2 -7 -9 -15 -16 -12 -10 -15 -10 -15 4 0 9 7 16 15 16 8 0 15 -2
15 -4z m324 -21 c-4 -8 -10 -15 -15 -15 -4 0 -6 7 -3 15 4 8 10 15 15 15 4 0
6 -7 3 -15z m96 -10 c0 -14 -4 -25 -10 -25 -11 0 -14 33 -3 43 11 11 13 8 13
-18z m-858 -7 c-7 -7 -12 -8 -12 -2 0 6 3 14 7 17 3 4 9 5 12 2 2 -3 -1 -11
-7 -17z m482 7 c-4 -8 -12 -15 -20 -15 -8 0 -11 -6 -8 -15 4 -9 0 -15 -9 -15
-9 0 -32 -9 -52 -21 l-35 -21 16 29 c9 15 35 38 58 49 51 27 57 28 50 9z m161
-17 c5 -4 0 -6 -13 -5 -22 1 -27 8 -15 20 3 4 9 4 12 0 3 -4 10 -11 16 -15z
m-1319 -25 c-10 -10 -19 5 -10 18 6 11 8 11 12 0 2 -7 1 -15 -2 -18z m1806 5
c-7 -7 -12 -8 -12 -2 0 6 3 14 7 17 3 4 9 5 12 2 2 -3 -1 -11 -7 -17z m-581
-2 c14 8 11 -6 -5 -22 -21 -20 -24 -18 -18 14 3 15 7 21 10 14 2 -6 8 -10 13
-6z m-1361 -6 c0 -5 -5 -10 -11 -10 -5 0 -7 5 -4 10 3 6 8 10 11 10 2 0 4 -4
4 -10z m1480 6 c0 -2 -7 -9 -15 -16 -13 -11 -14 -10 -9 4 5 14 24 23 24 12z
m260 0 c0 -3 -4 -8 -10 -11 -5 -3 -10 -1 -10 4 0 6 5 11 10 11 6 0 10 -2 10
-4z m-704 -33 c-10 -10 -19 5 -10 18 6 11 8 11 12 0 2 -7 1 -15 -2 -18z m359
-3 c-20 -23 -29 -21 -19 4 3 9 13 16 22 16 13 0 12 -3 -3 -20z m-390 -20 c-6
-9 -10 -9 -16 1 -7 11 -9 11 -9 -1 0 -13 -1 -13 -10 0 -7 11 -5 17 8 21 21 8
37 -5 27 -21z m595 16 c0 -3 -4 -8 -10 -11 -5 -3 -10 -1 -10 4 0 6 5 11 10 11
6 0 10 -2 10 -4z m30 -28 c-17 -66 -23 -83 -37 -103 -14 -19 -15 -19 -7 5 4
14 8 40 10 58 2 27 27 72 39 72 2 0 -1 -15 -5 -32z m-1570 8 c0 -3 -4 -8 -10
-11 -5 -3 -10 -1 -10 4 0 6 5 11 10 11 6 0 10 -2 10 -4z m710 0 c0 -11 -19
-15 -25 -6 -3 5 1 10 9 10 9 0 16 -2 16 -4z m910 -6 c0 -5 -5 -10 -11 -10 -5
0 -7 5 -4 10 3 6 8 10 11 10 2 0 4 -4 4 -10z m44 -35 c16 -25 16 -25 -3 -13
-11 6 -18 15 -15 19 2 4 -2 10 -8 12 -8 4 -9 6 -2 6 7 1 19 -10 28 -24z
m-1772 -7 c-7 -7 -12 -8 -12 -2 0 14 12 26 19 19 2 -3 -1 -11 -7 -17z m1108
-18 c0 -5 -5 -10 -11 -10 -5 0 -7 5 -4 10 3 6 8 10 11 10 2 0 4 -4 4 -10z
m-1020 -4 c0 -3 -4 -8 -10 -11 -5 -3 -10 -1 -10 4 0 6 5 11 10 11 6 0 10 -2
10 -4z m790 -2 c0 -7 -27 -34 -34 -34 -4 0 -1 9 6 20 12 19 28 27 28 14z m900
-16 c0 -6 -6 -5 -15 2 -8 7 -15 14 -15 16 0 2 7 1 15 -2 8 -4 15 -11 15 -16z
m-840 8 c0 -3 -4 -8 -10 -11 -5 -3 -10 -1 -10 4 0 6 5 11 10 11 6 0 10 -2 10
-4z m26 -23 c-10 -10 -19 5 -10 18 6 11 8 11 12 0 2 -7 1 -15 -2 -18z m884 13
c0 -10 -7 -12 -22 -8 -21 5 -21 6 -2 13 10 4 20 8 22 8 1 1 2 -5 2 -13z m-455
-6 c-3 -5 -11 -10 -16 -10 -6 0 -7 5 -4 10 3 6 11 10 16 10 6 0 7 -4 4 -10z
m-285 -20 c-6 -11 -18 -20 -28 -20 -13 0 -12 4 8 20 31 25 33 25 20 0z m361
-14 c5 3 9 0 9 -6 0 -15 -23 -7 -26 8 -1 7 0 8 3 2 2 -5 9 -8 14 -4z m-1521
-6 c0 -5 -5 -10 -11 -10 -5 0 -7 5 -4 10 3 6 8 10 11 10 2 0 4 -4 4 -10z m974
-23 c-12 -20 -37 -47 -44 -47 -12 0 -30 49 -20 55 18 11 32 -6 18 -23 -11 -13
-11 -14 2 -10 8 2 19 14 25 25 5 12 13 19 17 17 5 -3 5 -11 2 -17z m196 14 c0
-5 -7 -11 -14 -14 -10 -4 -13 -1 -9 9 6 15 23 19 23 5z m-293 -38 c-9 -9 -19
-14 -23 -11 -10 10 6 28 24 28 15 0 15 -1 -1 -17z m733 3 c0 -3 -4 -8 -10 -11
-5 -3 -10 -1 -10 4 0 6 5 11 10 11 6 0 10 -2 10 -4z m-579 -69 c-17 -18 -31
-26 -31 -19 0 6 4 12 10 12 5 0 17 15 26 33 11 20 19 27 22 18 2 -7 -10 -27
-27 -44z m739 49 c0 -3 -4 -8 -10 -11 -5 -3 -10 -1 -10 4 0 6 5 11 10 11 6 0
10 -2 10 -4z m-846 -14 c7 -12 -5 -52 -15 -52 -5 0 -9 9 -9 20 0 24 -18 27
-26 5 -4 -9 -15 -20 -26 -26 -20 -11 -20 -10 -2 20 10 16 27 32 38 34 12 2 24
5 28 6 4 0 9 -3 12 -7z m172 -19 c-10 -10 -19 5 -10 18 6 11 8 11 12 0 2 -7 1
-15 -2 -18z m924 17 c0 -5 -2 -10 -4 -10 -3 0 -8 5 -11 10 -3 6 -1 10 4 10 6
0 11 -4 11 -10z m-949 -76 c-11 -15 -21 -23 -21 -18 0 14 31 56 37 50 3 -3 -4
-17 -16 -32z m-171 -26 c0 -5 -4 -8 -10 -8 -5 0 -10 10 -10 23 0 18 2 19 10 7
5 -8 10 -18 10 -22z m80 7 c0 -8 -5 -15 -11 -15 -16 0 -36 -24 -31 -38 2 -6
-1 -12 -8 -12 -6 0 -8 5 -5 10 3 6 0 10 -7 10 -7 0 3 14 22 30 41 35 40 34 40
15z m-50 1 c0 -3 -4 -8 -10 -11 -5 -3 -10 -1 -10 4 0 6 5 11 10 11 6 0 10 -2
10 -4z m315 -24 c-8 -8 -25 10 -19 20 4 6 9 5 15 -3 4 -7 6 -15 4 -17z m-215
8 c0 -5 -2 -10 -4 -10 -3 0 -8 5 -11 10 -3 6 -1 10 4 10 6 0 11 -4 11 -10z
m-225 -20 c-3 -5 -10 -10 -16 -10 -5 0 -9 5 -9 10 0 6 7 10 16 10 8 0 12 -4 9
-10z m40 -10 c3 -5 1 -10 -4 -10 -6 0 -11 5 -11 10 0 6 2 10 4 10 3 0 8 -4 11
-10z m412 -22 c-3 -8 -6 -5 -6 6 -1 11 2 17 5 13 3 -3 4 -12 1 -19z m483 1 c0
-5 -4 -9 -10 -9 -5 0 -10 7 -10 16 0 8 5 12 10 9 6 -3 10 -10 10 -16z m-1608
-11 c-7 -7 -12 -8 -12 -2 0 14 12 26 19 19 2 -3 -1 -11 -7 -17z m688 0 c0 -13
-23 -5 -28 10 -2 7 2 10 12 6 9 -3 16 -11 16 -16z m80 18 c0 -3 -4 -8 -10 -11
-5 -3 -10 -1 -10 4 0 6 5 11 10 11 6 0 10 -2 10 -4z m120 0 c0 -3 -4 -8 -10
-11 -5 -3 -10 -1 -10 4 0 6 5 11 10 11 6 0 10 -2 10 -4z m700 -27 c0 -6 9 -9
19 -6 14 3 18 1 14 -9 -7 -18 -21 -18 -39 0 -16 17 -18 26 -4 26 6 0 10 -5 10
-11z m-870 -9 c0 -5 -7 -10 -16 -10 -8 0 -12 5 -9 10 3 6 10 10 16 10 5 0 9
-4 9 -10z m228 -12 c-15 -23 -58 -55 -58 -44 0 8 58 66 67 66 3 0 -1 -10 -9
-22z m770 11 c-2 -6 -8 -10 -13 -10 -5 0 -11 4 -13 10 -2 6 4 11 13 11 9 0 15
-5 13 -11z m-838 -10 c0 -5 -4 -8 -9 -4 -5 3 -12 1 -16 -5 -9 -15 -25 -12 -25
5 0 9 9 15 25 15 14 0 25 -5 25 -11z m120 -25 c0 -8 -5 -12 -10 -9 -6 4 -8 11
-5 16 9 14 15 11 15 -7z m-126 -30 c-3 -29 -8 -37 -29 -40 -17 -3 -20 12 -5
21 6 3 10 0 10 -7 0 -10 2 -10 9 1 5 7 6 22 4 32 -3 10 -1 19 4 19 6 0 9 -12
7 -26z m169 3 c3 -8 -1 -14 -9 -14 -8 0 -14 6 -14 14 0 7 4 13 9 13 5 0 11 -6
14 -13z m53 -11 c2 -12 -4 -13 -35 -7 -2 1 2 8 9 16 14 16 23 13 26 -9z m-452
-11 c-4 -8 -11 -15 -16 -15 -6 0 -5 6 2 15 7 8 14 15 16 15 2 0 1 -7 -2 -15z
m426 -19 c0 -2 -7 -7 -16 -10 -8 -3 -12 -2 -9 4 6 10 25 14 25 6z m90 -16
c-20 -13 -33 -13 -25 0 3 6 14 10 23 10 15 0 15 -2 2 -10z m-420 -27 c0 -7 -4
-13 -10 -13 -5 0 -10 5 -10 11 0 5 -5 7 -12 3 -6 -4 -8 -3 -5 3 9 14 37 12 37
-4z m-145 -13 c-3 -5 -12 -10 -18 -10 -7 0 -6 4 3 10 19 12 23 12 15 0z m2135
2 c0 -14 -39 -56 -46 -50 -3 4 5 18 17 32 24 28 29 31 29 18z m-2100 -12 c0
-5 -2 -10 -4 -10 -3 0 -8 5 -11 10 -3 6 -1 10 4 10 6 0 11 -4 11 -10z m400
-10 c0 -5 -5 -10 -11 -10 -5 0 -7 5 -4 10 3 6 8 10 11 10 2 0 4 -4 4 -10z
m1774 -5 c3 -9 0 -15 -9 -15 -16 0 -27 14 -18 24 10 10 21 7 27 -9z m28 -53
c-23 -20 -42 -42 -42 -49 0 -18 -21 -27 -30 -12 -16 25 -37 -10 -44 -73 -4
-34 -12 -70 -17 -80 -6 -11 -13 -37 -17 -58 -5 -29 -11 -37 -20 -31 -10 6 -8
20 9 65 18 46 20 62 11 77 -6 10 -9 25 -6 32 3 9 -3 16 -15 20 -29 7 -26 22 9
47 22 16 30 30 31 53 0 29 1 30 9 10 15 -37 58 -34 109 8 52 43 63 35 13 -9z
m-1843 -21 c-6 -18 -13 -30 -15 -28 -2 2 1 18 7 36 6 18 13 30 15 28 2 -2 -1
-18 -7 -36z m-347 -11 c-15 -27 -32 -39 -32 -24 0 14 34 62 41 58 4 -2 0 -18
-9 -34z m518 10 c0 -5 -5 -10 -11 -10 -5 0 -7 5 -4 10 3 6 8 10 11 10 2 0 4
-4 4 -10z m74 -24 c-10 -8 -21 -12 -23 -10 -3 2 4 11 15 18 10 8 21 12 23 10
3 -2 -4 -11 -15 -18z m-516 -73 c-18 -22 -28 -14 -16 12 8 18 14 22 19 13 4
-7 3 -18 -3 -25z m2126 21 c9 -22 -1 -34 -30 -34 -17 0 -24 6 -24 19 0 17 10
24 41 30 4 0 10 -6 13 -15z m-1464 -14 c0 -5 -2 -10 -4 -10 -3 0 -8 5 -11 10
-3 6 -1 10 4 10 6 0 11 -4 11 -10z m-416 -15 c-7 -16 -24 -21 -24 -6 0 8 7 13
27 20 1 1 0 -6 -3 -14z m-182 -60 c-9 -20 -20 -31 -25 -26 -7 7 28 61 39 61 1
0 -6 -16 -14 -35z m809 -4 c-12 -11 -19 -25 -16 -34 4 -8 -4 -25 -17 -39 -13
-13 -17 -16 -9 -6 7 9 14 29 14 44 0 25 38 77 45 61 2 -4 -6 -16 -17 -26z
m-321 25 c0 -3 -4 -8 -10 -11 -5 -3 -10 -1 -10 4 0 6 5 11 10 11 6 0 10 -2 10
-4z m-290 -16 c0 -5 -4 -10 -10 -10 -5 0 -10 5 -10 10 0 6 5 10 10 10 6 0 10
-4 10 -10z m670 -26 c0 -11 -6 -15 -20 -11 -11 3 -20 1 -20 -4 0 -5 -4 -9 -10
-9 -19 0 -10 21 13 30 32 13 37 12 37 -6z m-980 -4 c0 -5 -4 -10 -10 -10 -5 0
-10 5 -10 10 0 6 5 10 10 10 6 0 10 -4 10 -10z m2215 -9 c7 -22 -10 -71 -25
-71 -7 0 -10 8 -8 18 2 9 -3 22 -11 28 -13 10 -13 14 -2 28 18 21 38 20 46 -3z
m-1805 -20 c-5 -11 -10 -51 -10 -90 0 -39 -3 -71 -7 -71 -5 0 -6 23 -5 50 6
80 0 86 -54 54 -43 -25 -45 -26 -33 -6 8 12 18 22 24 22 6 0 25 14 43 30 38
35 58 40 42 11z m1680 5 c0 -18 -15 -36 -31 -36 -22 0 -24 11 -7 28 11 11 38
17 38 8z m-1040 -15 c0 -12 -20 -25 -27 -18 -7 7 6 27 18 27 5 0 9 -4 9 -9z
m-1080 -15 c0 -3 -4 -8 -10 -11 -5 -3 -10 -1 -10 4 0 6 5 11 10 11 6 0 10 -2
10 -4z m184 -4 c2 -4 -4 -9 -15 -9 -11 -1 -17 2 -14 8 7 11 22 12 29 1z m636
-1 c0 -5 -7 -11 -15 -15 -9 -3 -15 0 -15 9 0 8 7 15 15 15 8 0 15 -4 15 -9z
m-315 -20 c3 -5 1 -12 -5 -16 -5 -3 -10 1 -10 9 0 18 6 21 15 7z m275 -6 c0
-8 -4 -15 -8 -15 -5 0 -9 7 -9 15 0 8 4 15 9 15 4 0 8 -7 8 -15z m-252 -15
c-7 -10 -14 -18 -15 -16 -6 6 9 36 18 36 5 0 4 -9 -3 -20z m888 -17 c-7 -32 7
-63 19 -44 10 17 36 -6 28 -25 -8 -21 -20 -17 -46 12 -29 34 -33 84 -6 84 6 0
8 -12 5 -27z m794 3 c0 -16 -18 -31 -27 -22 -8 8 5 36 17 36 5 0 10 -6 10 -14z
m-1473 -18 c-3 -8 -6 -5 -6 6 -1 11 2 17 5 13 3 -3 4 -12 1 -19z m-767 2 c0
-5 -7 -10 -15 -10 -8 0 -15 5 -15 10 0 6 7 10 15 10 8 0 15 -4 15 -10z m944 2
c3 -5 -1 -9 -9 -9 -8 0 -15 4 -15 9 0 4 4 8 9 8 6 0 12 -4 15 -8z m1076 -5 c0
-14 -20 -37 -32 -37 -12 0 -10 24 4 38 16 16 28 15 28 -1z m-1292 -20 c2 -12
-1 -15 -12 -11 -19 7 -22 38 -3 32 6 -3 13 -12 15 -21z m-835 -27 c-9 -22 -20
-40 -25 -40 -10 0 -10 6 1 28 5 9 12 25 15 35 3 9 10 17 15 17 5 0 2 -18 -6
-40z m1707 26 c0 -8 2 -20 3 -28 2 -7 2 -10 0 -7 -2 4 -12 5 -22 2 -27 -7 -38
17 -16 34 24 17 35 17 35 -1z m-1316 -11 c-4 -8 -12 -15 -19 -15 -7 0 -18 -7
-25 -15 -7 -9 -15 -13 -17 -11 -9 8 33 44 64 55 1 1 0 -6 -3 -14z m1272 -50
c18 -27 19 -34 8 -50 -8 -10 -14 -31 -14 -45 0 -36 -25 -69 -40 -54 -9 9 -8
18 4 36 23 36 29 102 11 146 -8 20 -9 29 -2 18 7 -10 21 -33 33 -51z m-1059
33 c-3 -8 -6 -5 -6 6 -1 11 2 17 5 13 3 -3 4 -12 1 -19z m189 -8 c8 0 14 -4
14 -10 0 -14 -13 -13 -29 3 -10 10 -11 8 -5 -8 4 -11 16 -27 26 -36 25 -23 23
-29 -12 -29 -16 0 -30 -4 -30 -10 0 -5 -4 -10 -10 -10 -5 0 -10 11 -10 25 0
18 4 23 15 19 9 -4 15 0 15 10 0 9 -8 16 -20 16 -11 0 -20 4 -20 9 0 5 -3 18
-7 28 -7 17 -6 17 11 0 20 -19 35 -15 37 11 1 15 2 15 6 0 2 -10 11 -18 19
-18z m568 15 c-6 -16 -24 -21 -24 -7 0 11 11 22 21 22 5 0 6 -7 3 -15z m-1064
-10 c-10 -12 -9 -16 5 -21 13 -6 9 -13 -24 -45 -22 -22 -48 -39 -58 -39 -13 0
-8 9 20 33 33 28 43 44 46 80 1 4 6 7 12 7 8 0 8 -5 -1 -15z m1232 -7 c-7 -7
-12 -8 -12 -2 0 14 12 26 19 19 2 -3 -1 -11 -7 -17z m-832 8 c0 -3 -4 -8 -10
-11 -5 -3 -10 -1 -10 4 0 6 5 11 10 11 6 0 10 -2 10 -4z m1340 -14 c0 -12 -23
-32 -37 -32 -19 0 -16 28 5 33 28 8 32 7 32 -1z m-1560 -12 c0 -5 -5 -10 -11
-10 -5 0 -7 5 -4 10 3 6 8 10 11 10 2 0 4 -4 4 -10z m110 2 c11 7 22 10 25 7
6 -6 -22 -66 -35 -74 -11 -7 0 -46 17 -63 16 -17 17 -43 1 -40 -7 2 -14 -7
-16 -19 -5 -35 -22 -27 -20 10 1 18 -4 41 -9 52 -7 14 -7 38 1 78 6 32 12 54
14 48 2 -7 10 -6 22 1z m1620 -2 c0 -5 -4 -10 -10 -10 -5 0 -10 5 -10 10 0 6
5 10 10 10 6 0 10 -4 10 -10z m-1805 -10 c-3 -5 -13 -10 -21 -10 -8 0 -12 5
-9 10 3 6 13 10 21 10 8 0 12 -4 9 -10z m583 -4 l37 7 -29 -32 c-34 -36 -51
-40 -43 -11 3 11 1 17 -4 14 -14 -8 -72 7 -62 16 11 11 57 17 61 7 2 -4 20 -5
40 -1z m93 -36 c-23 -44 -27 -47 -35 -30 -10 23 -15 24 -36 10 -12 -8 -10 -10
9 -10 30 0 20 -12 -14 -16 -14 -1 -25 2 -25 7 0 17 53 60 67 55 7 -3 16 1 20
8 5 7 15 16 23 19 8 3 16 6 16 6 1 1 -10 -21 -25 -49z m399 26 c0 -16 -18 -31
-27 -22 -8 8 5 36 17 36 5 0 10 -6 10 -14z m-1260 -6 c0 -5 -5 -10 -11 -10 -5
0 -7 5 -4 10 3 6 8 10 11 10 2 0 4 -4 4 -10z m200 -15 c0 -14 -4 -25 -9 -25
-4 0 -6 11 -3 25 2 14 6 25 8 25 2 0 4 -11 4 -25z m240 21 c0 -2 -7 -9 -15
-16 -12 -10 -15 -10 -15 4 0 9 7 16 15 16 8 0 15 -2 15 -4z m520 -16 c0 -5 -4
-10 -10 -10 -5 0 -10 5 -10 10 0 6 5 10 10 10 6 0 10 -4 10 -10z m363 -10 c-3
-11 -9 -20 -13 -20 -5 0 -6 9 -3 20 3 11 9 20 13 20 5 0 6 -9 3 -20z m-686
-22 c-3 -8 -6 -5 -6 6 -1 11 2 17 5 13 3 -3 4 -12 1 -19z m-781 0 c4 -7 4 -10
-1 -6 -4 4 -14 3 -22 -3 -8 -8 -13 -8 -13 -1 0 6 6 13 13 15 6 3 13 6 14 6 1
1 5 -5 9 -11z m221 -10 c-3 -8 -6 -5 -6 6 -1 11 2 17 5 13 3 -3 4 -12 1 -19z
m543 12 c0 -5 -5 -10 -11 -10 -5 0 -7 5 -4 10 3 6 8 10 11 10 2 0 4 -4 4 -10z
m-55 -20 c-1 -11 -6 -25 -12 -31 -12 -12 -11 19 1 39 10 17 13 15 11 -8z m495
16 c0 -3 -4 -8 -10 -11 -5 -3 -10 -1 -10 4 0 6 5 11 10 11 6 0 10 -2 10 -4z
m-1090 -16 c0 -5 -5 -10 -11 -10 -5 0 -7 5 -4 10 3 6 8 10 11 10 2 0 4 -4 4
-10z m463 -4 c4 -10 1 -13 -8 -9 -8 3 -12 9 -9 14 7 12 11 11 17 -5z m944 -20
c-4 -9 -11 -16 -17 -16 -11 0 -14 33 -3 44 11 10 26 -11 20 -28z m383 20 c0
-16 -18 -31 -27 -22 -8 8 5 36 17 36 5 0 10 -6 10 -14z m-1270 -5 c0 -5 -9
-11 -20 -14 -20 -5 -26 3 -13 16 9 10 33 8 33 -2z m-445 -42 c-4 -11 -2 -19 5
-19 6 0 8 -10 4 -26 -6 -24 -5 -25 15 -15 21 12 31 -2 10 -14 -5 -4 -14 -18
-20 -32 -5 -13 -14 -21 -20 -18 -6 4 -8 13 -5 21 3 8 0 11 -10 7 -18 -7 -18
11 0 26 10 9 12 21 5 49 -13 57 -12 67 6 52 9 -7 13 -21 10 -31z m545 20 c-7
-11 -14 -18 -17 -15 -8 8 5 36 17 36 7 0 7 -6 0 -21z m530 11 c0 -5 -5 -10
-11 -10 -5 0 -7 5 -4 10 3 6 8 10 11 10 2 0 4 -4 4 -10z m776 -17 c-10 -10
-19 5 -10 18 6 11 8 11 12 0 2 -7 1 -15 -2 -18z m-1156 8 c0 -10 -30 -24 -37
-17 -3 3 -2 9 2 15 8 13 35 15 35 2z m160 -1 c0 -5 -5 -10 -11 -10 -5 0 -7 5
-4 10 3 6 8 10 11 10 2 0 4 -4 4 -10z m110 0 c0 -5 -5 -10 -11 -10 -5 0 -7 5
-4 10 3 6 8 10 11 10 2 0 4 -4 4 -10z m-698 -22 c-6 -6 -15 -8 -19 -4 -4 4 -1
11 7 16 19 12 27 3 12 -12z m168 -14 c0 -9 -5 -14 -12 -12 -18 6 -21 28 -4 28
9 0 16 -7 16 -16z m682 -6 c-7 -7 -12 -8 -12 -2 0 14 12 26 19 19 2 -3 -1 -11
-7 -17z m168 6 c0 -17 -22 -14 -28 4 -2 7 3 12 12 12 9 0 16 -7 16 -16z
m-1220 -9 c-7 -9 -15 -13 -17 -11 -7 7 7 26 19 26 6 0 6 -6 -2 -15z m780 11
c0 -3 -4 -8 -10 -11 -5 -3 -10 -1 -10 4 0 6 5 11 10 11 6 0 10 -2 10 -4z m390
-10 c0 -8 -7 -16 -15 -20 -15 -5 -21 14 -8 27 11 12 23 8 23 -7z m680 -16 c0
-25 -18 -36 -26 -16 -8 21 3 49 16 41 5 -3 10 -15 10 -25z m-2014 -4 c0 -15
-5 -21 -10 -16 -5 5 -6 16 -3 24 9 23 15 19 13 -8z m1514 14 c0 -5 -5 -10 -11
-10 -5 0 -7 5 -4 10 3 6 8 10 11 10 2 0 4 -4 4 -10z m-1575 -9 c3 -5 1 -12 -5
-16 -5 -3 -10 1 -10 9 0 18 6 21 15 7z m420 -11 c3 -5 1 -10 -4 -10 -6 0 -11
5 -11 10 0 6 2 10 4 10 3 0 8 -4 11 -10z m1325 -3 c0 -8 -11 -24 -25 -37 -21
-20 -25 -21 -31 -7 -7 20 3 37 22 37 8 0 14 5 14 10 0 6 5 10 10 10 6 0 10 -6
10 -13z m106 2 c4 -7 -1 -16 -10 -21 -9 -5 -21 -21 -26 -34 -11 -29 -30 -32
-30 -4 0 10 9 24 20 30 11 6 20 17 20 25 0 18 16 20 26 4z m345 -12 c-13 -13
-26 -3 -16 12 3 6 11 8 17 5 6 -4 6 -10 -1 -17z m-1831 9 c0 -3 -4 -8 -10 -11
-5 -3 -10 -1 -10 4 0 6 5 11 10 11 6 0 10 -2 10 -4z m1161 -24 c-4 -9 -20 -44
-36 -77 -32 -67 -41 -146 -17 -156 10 -3 0 -18 -35 -53 -28 -26 -60 -54 -71
-62 -12 -8 -22 -21 -22 -28 0 -8 -9 -16 -21 -19 -14 -4 -19 -11 -15 -24 6 -21
-34 -55 -52 -44 -8 5 -4 18 14 45 28 40 26 58 -3 35 -16 -12 -16 -11 1 8 28
34 15 44 -28 22 -22 -10 -46 -19 -54 -19 -8 0 -32 -10 -54 -22 -24 -14 -42
-19 -46 -12 -17 24 -92 -1 -92 -31 0 -19 37 -25 51 -9 6 8 15 11 21 8 5 -3 4
-12 -3 -20 -6 -7 -14 -12 -18 -9 -4 2 -19 -7 -34 -21 -36 -33 -41 -31 -33 16
7 46 4 48 -31 20 -25 -19 -25 -20 -4 -20 23 0 26 -7 12 -29 -5 -7 -13 -11 -19
-7 -6 3 -41 -3 -79 -15 -37 -12 -74 -23 -81 -25 -9 -2 -6 -10 9 -25 16 -16 20
-29 15 -50 -3 -16 -1 -29 4 -29 6 0 10 5 10 10 0 6 5 10 11 10 7 0 23 12 36
26 13 14 27 23 31 20 3 -4 -13 -24 -35 -44 -23 -20 -43 -46 -45 -56 -3 -21
-52 -34 -63 -16 -3 5 -15 10 -26 10 -24 0 -35 25 -19 44 12 16 17 72 6 83 -7
8 -60 -21 -90 -48 -10 -10 -18 -29 -18 -43 0 -23 -4 -25 -27 -20 -14 4 -30 12
-36 18 -5 6 -18 10 -27 8 -11 -2 -18 3 -18 12 0 9 -4 16 -10 16 -5 0 -10 5
-10 11 0 6 6 9 13 6 6 -2 20 2 29 10 15 13 18 12 34 -12 15 -23 19 -25 28 -13
6 9 21 18 34 22 27 9 29 36 3 36 -18 0 -31 18 -31 42 0 6 12 8 29 5 15 -3 33
-1 40 6 8 8 11 7 11 -7 0 -9 5 -14 10 -11 17 11 11 23 -22 42 -32 19 -33 19
-65 -2 -18 -11 -32 -26 -33 -32 0 -16 -20 -17 -20 -2 0 5 -4 7 -10 4 -5 -3
-10 -17 -10 -31 0 -30 -7 -30 -44 0 -19 16 -27 30 -23 41 4 9 11 14 17 10 12
-8 50 16 50 32 0 7 -4 13 -8 13 -10 0 -33 61 -26 71 3 5 -2 9 -12 9 -13 0 -14
3 -4 15 7 8 9 24 5 37 -4 13 -4 20 0 15 5 -4 17 1 27 10 12 11 22 13 28 7 7
-7 4 -17 -10 -29 -20 -18 -27 -45 -11 -45 5 0 14 7 21 15 7 8 17 12 23 8 6 -3
7 -1 3 6 -4 6 -2 18 4 26 6 8 9 23 5 35 -4 11 1 34 9 52 9 17 16 39 16 50 0
28 17 21 28 -11 8 -23 7 -31 -4 -35 -19 -7 -18 -35 1 -42 25 -10 17 -46 -17
-81 -25 -26 -28 -33 -14 -33 9 0 24 -7 33 -15 8 -8 19 -12 24 -9 6 3 23 8 38
10 26 4 28 2 23 -21 -3 -20 -1 -24 11 -19 11 4 18 -2 22 -19 11 -43 47 -42
145 1 41 18 104 82 81 82 -5 0 -13 -4 -16 -10 -3 -5 -14 -10 -25 -10 -13 0
-17 -5 -13 -19 4 -17 0 -20 -23 -18 -22 2 -28 7 -26 22 2 10 -2 29 -9 42 -15
28 -8 36 31 36 29 0 34 7 31 35 -1 6 3 12 9 12 5 0 10 -5 10 -11 0 -6 7 -9 15
-5 29 11 15 -19 -20 -43 -38 -26 -39 -41 -2 -24 12 6 30 14 40 17 9 3 21 16
26 28 10 26 51 67 51 51 0 -6 -7 -16 -15 -23 -8 -7 -15 -17 -15 -23 0 -6 -7
-19 -17 -29 -18 -20 -12 -35 8 -22 12 7 72 15 124 15 56 1 89 13 126 46 22 20
43 33 47 29 7 -7 -19 -31 -42 -39 -6 -2 -8 -8 -4 -12 10 -11 98 24 105 41 3 8
10 14 15 14 16 0 51 42 65 76 10 25 47 121 74 192 5 13 13 20 19 17 5 -3 6
-13 1 -23z m-1191 9 c0 -17 -18 -21 -24 -6 -3 9 0 15 9 15 8 0 15 -4 15 -9z
m718 -16 c1 -15 -3 -25 -11 -25 -21 0 -27 11 -16 31 14 26 24 24 27 -6z m132
17 c0 -13 -39 -46 -46 -39 -9 9 16 47 31 47 8 0 15 -4 15 -8z m271 -58 c-17
-19 -31 -38 -31 -43 0 -5 -13 -25 -30 -46 -16 -21 -30 -35 -30 -32 0 11 52
101 70 122 10 11 23 31 31 45 11 21 14 22 17 7 2 -10 -10 -33 -27 -53z m205
35 c-3 -18 -1 -37 4 -44 14 -16 3 -43 -20 -50 -34 -11 -70 -46 -70 -69 0 -22
-17 -46 -32 -46 -4 0 -5 7 -1 17 5 13 2 15 -15 11 -12 -4 -22 -5 -22 -3 0 1
23 25 50 53 28 28 50 55 50 61 0 5 8 12 18 16 13 3 19 15 20 35 1 30 8 50 19
50 3 0 3 -14 -1 -31z m-1236 7 c0 -3 -4 -8 -10 -11 -5 -3 -10 -1 -10 4 0 6 5
11 10 11 6 0 10 -2 10 -4z m66 -23 c-10 -10 -19 5 -10 18 6 11 8 11 12 0 2 -7
1 -15 -2 -18z m62 16 c-2 -6 -8 -10 -13 -10 -5 0 -11 4 -13 10 -2 6 4 11 13
11 9 0 15 -5 13 -11z m572 -31 c-3 -60 -2 -62 14 -49 8 7 24 14 37 16 28 6 40
24 33 49 -4 13 -2 17 7 14 16 -5 19 -37 5 -55 -5 -9 -4 -13 5 -13 9 0 14 -11
14 -30 0 -16 -3 -30 -7 -30 -5 0 -8 7 -8 15 0 23 -28 30 -49 11 -10 -9 -21
-13 -25 -9 -4 5 -19 -5 -32 -22 -20 -25 -26 -28 -34 -15 -11 17 -4 48 16 71
20 22 17 31 -6 24 -11 -4 -20 -2 -20 4 0 6 5 11 10 11 6 0 15 11 20 25 14 37
22 30 20 -17z m1221 19 c-13 -13 -26 -3 -16 12 3 6 11 8 17 5 6 -4 6 -10 -1
-17z m-1768 -27 c-8 -17 -19 -30 -24 -30 -13 0 -11 8 8 40 22 38 36 29 16 -10z
m1652 20 c4 -6 -5 -10 -20 -10 -15 0 -24 4 -20 10 3 6 12 10 20 10 8 0 17 -4
20 -10z m-1245 -10 c0 -5 -4 -10 -10 -10 -5 0 -10 5 -10 10 0 6 5 10 10 10 6
0 10 -4 10 -10z m-352 -17 c2 -8 -6 -13 -22 -13 -19 0 -24 4 -19 15 6 18 34
16 41 -2z m1542 7 c0 -5 -7 -10 -15 -10 -8 0 -15 5 -15 10 0 6 7 10 15 10 8 0
15 -4 15 -10z m-3338 -22 c-7 -7 -12 -8 -12 -2 0 14 12 26 19 19 2 -3 -1 -11
-7 -17z m2938 -12 c0 -14 -27 -42 -34 -35 -2 2 0 14 5 27 9 24 29 30 29 8z
m425 -16 c-5 -21 -2 -39 9 -55 9 -13 16 -33 16 -44 0 -11 5 -21 12 -23 7 -3 9
-12 5 -22 -9 -23 -27 -11 -27 18 0 26 -31 58 -51 54 -21 -5 -22 29 -1 34 15 4
18 12 14 37 -3 24 -1 31 13 31 13 0 15 -6 10 -30z m-1527 2 c2 -7 -3 -12 -12
-12 -9 0 -16 7 -16 16 0 17 22 14 28 -4z m1326 4 c32 -11 35 -14 17 -19 -18
-4 -21 -10 -15 -31 5 -20 2 -26 -11 -26 -12 0 -16 6 -12 20 3 13 0 20 -9 20
-8 0 -14 10 -14 25 0 14 1 25 3 25 1 0 19 -6 41 -14z m354 2 c-6 -18 -28 -21
-28 -4 0 9 7 16 16 16 9 0 14 -5 12 -12z m-2788 -2 c0 -3 -4 -8 -10 -11 -5 -3
-10 -1 -10 4 0 6 5 11 10 11 6 0 10 -2 10 -4z m988 -28 c-4 -44 -38 -53 -38
-10 0 32 7 42 27 42 10 0 13 -10 11 -32z m472 22 c0 -5 -5 -10 -11 -10 -5 0
-7 5 -4 10 3 6 8 10 11 10 2 0 4 -4 4 -10z m-2208 -27 c-3 -16 -7 -22 -10 -15
-4 13 4 42 11 42 2 0 2 -12 -1 -27z m1302 -4 c-3 -5 -10 -7 -15 -3 -5 3 -7 10
-3 15 3 5 10 7 15 3 5 -3 7 -10 3 -15z m1726 6 c0 -9 7 -18 15 -21 17 -7 12
-20 -14 -34 -16 -8 -18 -5 -17 30 0 22 4 40 8 40 5 0 8 -7 8 -15z m-804 -46
c1 -16 -2 -29 -7 -29 -5 0 -9 5 -9 11 0 6 -12 10 -27 9 -48 -3 -49 -1 -8 24
22 14 42 22 45 20 2 -3 5 -19 6 -35z m-2191 21 c3 -5 1 -10 -4 -10 -6 0 -11 5
-11 10 0 6 2 10 4 10 3 0 8 -4 11 -10z m1580 0 c-3 -5 -11 -10 -16 -10 -6 0
-7 5 -4 10 3 6 11 10 16 10 6 0 7 -4 4 -10z m445 -2 c0 -7 -9 -24 -19 -38 -16
-20 -21 -22 -35 -11 -21 18 -20 31 3 31 10 0 21 7 25 15 7 18 26 20 26 3z
m200 -9 c0 -5 -4 -9 -10 -9 -5 0 -10 7 -10 16 0 8 5 12 10 9 6 -3 10 -10 10
-16z m190 6 c-7 -9 -15 -13 -17 -11 -7 7 7 26 19 26 6 0 6 -6 -2 -15z m1000 1
c0 -17 -14 -29 -23 -20 -8 8 3 34 14 34 5 0 9 -6 9 -14z m-2233 -2 c-3 -3 -12
-4 -19 -1 -8 3 -5 6 6 6 11 1 17 -2 13 -5z m887 -3 c3 -5 -1 -12 -10 -15 -20
-8 -29 -1 -19 13 8 13 22 14 29 2z m1375 -17 c-14 -18 -24 -11 -15 11 3 9 11
13 16 10 8 -5 7 -11 -1 -21z m-2119 -4 c0 -5 -5 -10 -11 -10 -5 0 -7 5 -4 10
3 6 8 10 11 10 2 0 4 -4 4 -10z m300 1 c0 -12 -20 -25 -27 -18 -7 7 6 27 18
27 5 0 9 -4 9 -9z m-504 -49 c-4 -3 -12 0 -19 7 -9 9 -9 14 3 21 11 7 16 5 18
-6 2 -9 1 -18 -2 -22z m174 34 c0 -3 -4 -8 -10 -11 -5 -3 -10 -1 -10 4 0 6 5
11 10 11 6 0 10 -2 10 -4z m962 -18 c-7 -7 -12 -8 -12 -2 0 14 12 26 19 19 2
-3 -1 -11 -7 -17z m-187 -10 c-10 -31 -25 -46 -25 -25 0 9 -4 17 -10 17 -17 0
-11 18 8 23 31 8 33 7 27 -15z m755 18 c0 -3 -4 -8 -10 -11 -5 -3 -10 -1 -10
4 0 6 5 11 10 11 6 0 10 -2 10 -4z m-962 -28 c-3 -7 -11 -13 -18 -13 -7 0 -15
6 -17 13 -3 7 4 12 17 12 13 0 20 -5 18 -12z m295 -16 c-6 -24 -18 -28 -29
-10 -4 6 1 17 11 24 23 17 26 14 18 -14z m-2153 14 c0 -3 -4 -8 -10 -11 -5 -3
-10 -1 -10 4 0 6 5 11 10 11 6 0 10 -2 10 -4z m1307 -18 c-3 -8 -6 -5 -6 6 -1
11 2 17 5 13 3 -3 4 -12 1 -19z m393 18 c0 -3 -4 -8 -10 -11 -5 -3 -10 -1 -10
4 0 6 5 11 10 11 6 0 10 -2 10 -4z m220 -6 c0 -5 -5 -10 -11 -10 -5 0 -7 5 -4
10 3 6 8 10 11 10 2 0 4 -4 4 -10z m490 6 c0 -2 -8 -10 -17 -17 -16 -13 -17
-12 -4 4 13 16 21 21 21 13z m-1294 -43 c-11 -11 -17 4 -9 23 7 18 8 18 11 1
2 -10 1 -21 -2 -24z m279 12 c0 -36 -22 -54 -23 -18 0 15 2 31 5 36 9 15 19 6
18 -18z m1575 17 c0 -13 -12 -22 -22 -16 -10 6 -1 24 13 24 5 0 9 -4 9 -8z
m-1024 -48 c-5 -14 -46 -20 -46 -7 0 4 10 18 23 31 18 20 23 21 25 7 2 -9 1
-23 -2 -31z m1244 11 c0 -13 -28 -35 -45 -35 -9 0 28 49 38 50 4 0 7 -7 7 -15z
m-154 -32 c-10 -10 -19 5 -10 18 6 11 8 11 12 0 2 -7 1 -15 -2 -18z m261 -7
c-4 -9 -11 -16 -17 -16 -11 0 -14 33 -3 44 11 10 26 -11 20 -28z m-1941 -12
c-4 -14 -9 -24 -12 -21 -3 2 -2 17 2 31 3 15 9 25 11 22 3 -3 2 -17 -1 -32z
m474 21 c0 -8 -7 -15 -15 -15 -16 0 -20 12 -8 23 11 12 23 8 23 -8z m-300 -5
c0 -5 -5 -10 -11 -10 -5 0 -7 5 -4 10 3 6 8 10 11 10 2 0 4 -4 4 -10z m260 -9
c0 -12 -20 -25 -27 -18 -7 7 6 27 18 27 5 0 9 -4 9 -9z m861 -47 c-21 -27 -21
-27 -21 -4 0 13 8 32 18 43 15 17 17 17 20 3 2 -9 -6 -28 -17 -42z m-72 -16
c-13 -18 -22 -43 -21 -55 2 -13 -1 -23 -7 -23 -6 0 -8 7 -5 15 10 24 -14 17
-32 -10 -19 -30 -34 -32 -34 -6 0 11 9 21 21 24 12 3 18 10 14 16 -9 15 26 60
48 61 10 0 21 8 24 17 4 10 8 12 11 5 2 -6 -7 -26 -19 -44z m-1679 32 c0 -5
-5 -10 -11 -10 -5 0 -7 5 -4 10 3 6 8 10 11 10 2 0 4 -4 4 -10z m610 -5 c0 -8
-4 -15 -10 -15 -5 0 -10 7 -10 15 0 8 5 15 10 15 6 0 10 -7 10 -15z m1560 -4
c0 -11 -4 -23 -10 -26 -6 -4 -10 5 -10 19 0 14 5 26 10 26 6 0 10 -9 10 -19z
m-1672 -11 c13 0 12 -4 -6 -20 -24 -22 -47 -27 -38 -7 3 6 9 21 13 32 4 11 8
14 11 7 2 -6 11 -12 20 -12z m544 -2 c-7 -7 -12 -8 -12 -2 0 14 12 26 19 19 2
-3 -1 -11 -7 -17z m-42 3 c0 -13 -29 -35 -37 -28 -7 8 15 37 28 37 5 0 9 -4 9
-9z m944 -22 c-3 -5 -10 -7 -15 -3 -5 3 -7 10 -3 15 3 5 10 7 15 3 5 -3 7 -10
3 -15z m86 12 c0 -12 -20 -25 -27 -18 -7 7 6 27 18 27 5 0 9 -4 9 -9z m-190
-13 c0 -7 -4 -19 -9 -27 -11 -17 -23 1 -15 23 7 19 24 21 24 4z m-770 -29 c0
-22 -16 -25 -36 -5 -18 19 -18 24 4 29 24 5 32 -1 32 -24z m394 15 c10 -27 7
-44 -9 -44 -10 0 -15 10 -15 30 0 32 14 40 24 14z m647 -27 c-8 -8 -11 -7 -11
4 0 20 13 34 18 19 3 -7 -1 -17 -7 -23z m-1405 -4 c-10 -10 -19 5 -10 18 6 11
8 11 12 0 2 -7 1 -15 -2 -18z m1044 12 c15 -18 3 -38 -17 -31 -9 4 -21 -1 -28
-11 -8 -10 -17 -15 -20 -11 -7 7 34 66 46 67 4 1 12 -6 19 -14z m-1120 -37 c0
-19 -2 -20 -10 -8 -13 19 -13 30 0 30 6 0 10 -10 10 -22z m777 -3 c-8 -20 7
-27 37 -15 21 8 27 6 36 -10 9 -18 7 -20 -18 -20 -15 0 -33 -5 -40 -12 -9 -9
-12 -9 -12 1 0 10 -10 12 -40 7 l-41 -6 33 34 c35 37 54 46 45 21z m-1011 -22
c-10 -10 -19 5 -10 18 6 11 8 11 12 0 2 -7 1 -15 -2 -18z m1769 7 c-10 -11
-22 -17 -27 -14 -12 8 11 34 30 34 13 0 12 -3 -3 -20z m-1815 0 c0 -5 -5 -10
-11 -10 -5 0 -7 5 -4 10 3 6 8 10 11 10 2 0 4 -4 4 -10z m230 -4 c0 -3 -4 -8
-10 -11 -5 -3 -10 -1 -10 4 0 6 5 11 10 11 6 0 10 -2 10 -4z m1020 -23 c0 -10
-8 -27 -16 -38 -15 -20 -15 -20 -35 4 l-20 25 28 12 c38 17 43 17 43 -3z
m-994 -10 c0 -10 9 -19 23 -23 24 -5 24 -6 -16 -38 -23 -17 -45 -32 -50 -32
-5 0 -20 -11 -33 -25 -27 -28 -40 -32 -40 -10 0 8 5 15 10 15 6 0 10 6 10 13
0 7 14 18 31 24 27 10 30 15 20 27 -10 12 -9 20 4 40 19 29 43 35 41 9z m700
-4 c0 -8 4 -22 8 -31 6 -13 -1 -26 -22 -48 -17 -16 -35 -30 -41 -30 -17 0 -13
27 5 34 12 5 15 14 10 38 -6 32 8 62 28 55 6 -2 11 -10 12 -18z m374 -9 c0
-10 3 -21 8 -23 4 -3 7 -22 7 -43 0 -31 -5 -41 -25 -51 -13 -7 -30 -19 -37
-28 -9 -13 -16 -14 -32 -5 -12 6 -21 17 -21 24 0 7 -9 21 -20 31 -11 10 -20
22 -20 27 0 5 7 2 16 -6 8 -9 24 -16 34 -16 10 0 20 -5 22 -11 2 -7 12 -7 31
0 23 9 27 16 27 50 0 22 -5 41 -11 43 -5 2 -7 11 -4 21 9 21 25 13 25 -13z
m398 18 c-2 -7 -21 -21 -41 -31 -38 -19 -51 -42 -19 -33 9 2 32 8 51 11 36 8
35 9 21 -40 -2 -5 0 -27 5 -48 6 -30 4 -42 -11 -58 -11 -12 -17 -32 -16 -45 2
-13 -1 -24 -6 -24 -15 0 -22 27 -16 58 5 22 0 30 -26 45 -26 16 -34 16 -47 6
-13 -11 -17 -10 -29 5 -17 24 -8 39 18 30 11 -3 27 -7 36 -8 8 -2 21 -11 28
-20 17 -25 31 -13 36 30 5 45 -17 58 -44 25 -18 -23 -18 -23 -18 -2 0 21 -1
21 -37 6 -21 -9 -40 -20 -43 -26 -4 -5 -24 -19 -46 -30 -21 -12 -33 -15 -26
-8 18 19 15 70 -5 84 -15 11 -15 17 -4 41 10 22 14 25 22 13 5 -7 9 -26 9 -41
0 -15 4 -30 10 -33 14 -9 60 24 54 40 -7 17 15 30 46 27 14 -1 39 6 55 17 36
23 48 26 43 9z m-1668 -20 c0 -16 -3 -19 -11 -11 -6 6 -8 16 -5 22 11 17 16
13 16 -11z m1404 3 c16 -14 14 -17 -26 -37 -24 -12 -46 -20 -50 -17 -9 5 -11
57 -3 65 11 10 62 3 79 -11z m343 -8 c-9 -9 -20 -13 -24 -9 -4 4 1 14 11 22
25 18 35 8 13 -13z m-1051 -10 c-10 -10 -19 5 -10 18 6 11 8 11 12 0 2 -7 1
-15 -2 -18z m-996 13 c0 -3 -4 -8 -10 -11 -5 -3 -10 -1 -10 4 0 6 5 11 10 11
6 0 10 -2 10 -4z m220 -11 c0 -8 -7 -15 -15 -15 -26 0 -18 20 13 29 1 1 2 -6
2 -14z m-65 -16 c-8 -12 -42 -12 -50 0 -3 5 5 11 17 13 28 5 40 0 33 -13z
m565 -5 c0 -16 -9 -18 -29 -5 -7 5 -11 14 -7 19 9 15 36 4 36 -14z m-340 -5
c0 -5 -4 -9 -10 -9 -5 0 -10 7 -10 16 0 8 5 12 10 9 6 -3 10 -10 10 -16z
m2500 -8 c0 -10 7 -24 15 -31 13 -11 13 -15 3 -21 -26 -17 -35 -8 -36 36 0 25
4 43 9 39 5 -3 9 -13 9 -23z m-2958 9 c-38 -16 -152 -24 -152 -12 0 10 40 15
145 19 28 2 28 1 7 -7z m121 3 c-13 -2 -35 -2 -50 0 -16 2 -5 4 22 4 28 0 40
-2 28 -4z m498 -26 c-13 -13 -26 -3 -16 12 3 6 11 8 17 5 6 -4 6 -10 -1 -17z
m569 2 c0 -11 -4 -17 -10 -14 -5 3 -10 13 -10 21 0 8 5 14 10 14 6 0 10 -9 10
-21z m286 -6 c-10 -10 -19 5 -10 18 6 11 8 11 12 0 2 -7 1 -15 -2 -18z m-1086
-3 c0 -5 -4 -10 -10 -10 -5 0 -10 5 -10 10 0 6 5 10 10 10 6 0 10 -4 10 -10z
m35 -17 c-8 -31 -13 -39 -20 -31 -9 9 6 58 17 58 6 0 7 -11 3 -27z m190 -3 c3
-5 -1 -10 -10 -10 -9 0 -13 5 -10 10 3 6 8 10 10 10 2 0 7 -4 10 -10z m50 1
c3 -5 1 -12 -5 -16 -5 -3 -10 1 -10 9 0 18 6 21 15 7z m495 -42 c0 -4 -4 -11
-10 -14 -5 -3 -10 1 -10 9 0 9 -4 16 -10 16 -5 0 -10 10 -10 23 l1 22 19 -24
c11 -13 20 -27 20 -32z m1060 26 c0 -14 5 -25 11 -25 7 0 9 -10 7 -25 -7 -32
3 -38 39 -24 l28 10 -22 -23 c-16 -16 -20 -31 -16 -47 5 -20 2 -22 -18 -19
-19 2 -26 12 -34 43 -5 22 -20 51 -33 63 -22 22 -25 22 -41 8 -21 -19 -33 -20
-49 -4 -13 13 3 52 17 43 5 -3 22 2 37 10 46 24 74 20 74 -10z m-920 0 c0 -8
-4 -15 -9 -15 -13 0 -22 16 -14 24 11 11 23 6 23 -9z m140 -4 c0 -22 -16 -36
-24 -22 -8 12 3 41 15 41 5 0 9 -9 9 -19z m-562 -28 c3 -19 -23 -51 -33 -41
-3 3 -2 19 1 37 7 34 27 37 32 4z m1708 -2 c-10 -16 -36 -13 -36 3 0 17 21 27
34 16 4 -5 5 -13 2 -19z m-1943 -3 c7 -27 -2 -45 -14 -27 -11 18 -11 49 0 49
5 0 11 -10 14 -22z m447 3 c0 -12 -28 -22 -34 -12 -3 5 -3 11 1 15 9 9 33 7
33 -3z m423 -10 c3 -12 -3 -27 -13 -36 -16 -15 -18 -14 -24 10 -4 14 -4 30 -1
35 10 17 32 11 38 -9z m157 -27 c0 -30 -14 -31 -34 -2 -11 16 -13 25 -4 35 15
18 38 -2 38 -33z m218 29 c-5 -26 -38 -29 -38 -4 0 15 6 21 21 21 14 0 19 -5
17 -17z m-931 -67 c-9 -22 -20 -20 -36 5 -11 18 -11 23 1 30 17 11 43 -15 35
-35z m-217 19 c0 -8 -4 -15 -10 -15 -5 0 -10 7 -10 15 0 8 5 15 10 15 6 0 10
-7 10 -15z m700 -5 c0 -11 -4 -20 -9 -20 -14 0 -23 18 -16 30 10 17 25 11 25
-10z m1100 10 c0 -5 -2 -10 -4 -10 -3 0 -8 5 -11 10 -3 6 -1 10 4 10 6 0 11
-4 11 -10z m-2110 -4 c0 -3 -4 -8 -10 -11 -5 -3 -10 -1 -10 4 0 6 5 11 10 11
6 0 10 -2 10 -4z m456 -23 c-10 -10 -19 5 -10 18 6 11 8 11 12 0 2 -7 1 -15
-2 -18z m144 18 c0 -6 -4 -13 -10 -16 -5 -3 -10 1 -10 9 0 9 5 16 10 16 6 0
10 -4 10 -9z m250 0 c0 -6 -4 -13 -10 -16 -5 -3 -10 1 -10 9 0 9 5 16 10 16 6
0 10 -4 10 -9z m490 0 c0 -23 -14 -41 -31 -41 -21 0 -189 -155 -189 -174 0 -7
-5 -17 -12 -24 -9 -9 -17 -5 -35 14 -19 21 -29 24 -56 19 -31 -7 -31 -6 -14
11 15 16 20 17 38 6 12 -8 32 -11 50 -7 38 8 125 91 121 115 -2 12 7 21 25 28
15 6 41 22 57 36 30 27 46 33 46 17z m880 -12 c0 -5 -7 -9 -15 -9 -15 0 -20
12 -9 23 8 8 24 -1 24 -14z m-2270 1 c0 -5 -4 -10 -10 -10 -5 0 -10 5 -10 10
0 6 5 10 10 10 6 0 10 -4 10 -10z m310 -19 c0 -11 -9 -21 -22 -24 -30 -8 -35
-1 -13 23 23 25 35 26 35 1z m370 -2 c0 -5 -7 -9 -15 -9 -15 0 -20 12 -9 23 8
8 24 -1 24 -14z m70 11 c0 -5 -4 -10 -10 -10 -5 0 -10 5 -10 10 0 6 5 10 10
10 6 0 10 -4 10 -10z m360 1 c0 -6 -4 -13 -10 -16 -5 -3 -10 1 -10 9 0 9 5 16
10 16 6 0 10 -4 10 -9z m-300 -11 c0 -5 -4 -10 -10 -10 -5 0 -10 5 -10 10 0 6
5 10 10 10 6 0 10 -4 10 -10z m910 -9 c0 -23 -16 -36 -25 -21 -9 14 1 40 15
40 5 0 10 -9 10 -19z m-765 -2 c4 -6 13 -8 21 -5 16 6 17 4 8 -18 -3 -9 -10
-16 -16 -16 -13 0 -38 26 -38 39 0 14 17 14 25 0z m108 -25 c-4 -10 -9 -12
-15 -6 -12 12 -1 35 12 27 5 -3 6 -13 3 -21z m500 0 c8 -9 -11 -44 -24 -44
-14 0 -39 26 -39 39 0 12 52 15 63 5z m-1185 -26 c-6 -18 -28 -21 -28 -4 0 9
7 16 16 16 9 0 14 -5 12 -12z m822 -3 c0 -8 -7 -15 -15 -15 -9 0 -12 6 -9 15
4 8 10 15 15 15 5 0 9 -7 9 -15z m-899 -5 c1 -5 2 -14 3 -19 0 -5 4 -13 8 -17
4 -4 5 -11 2 -15 -6 -11 -27 9 -36 33 -7 16 -1 28 14 28 4 0 9 -4 9 -10z
m2098 1 c10 -7 7 -16 -18 -41 -17 -18 -31 -41 -31 -51 0 -12 -11 -20 -32 -24
-18 -4 -53 -24 -76 -44 -62 -51 -105 -81 -117 -81 -5 0 6 13 25 28 19 15 55
45 81 67 25 22 56 47 68 55 13 8 34 34 48 58 26 44 30 47 52 33z m118 -13 c-3
-8 -6 -5 -6 6 -1 11 2 17 5 13 3 -3 4 -12 1 -19z m-1917 8 c0 -3 -4 -8 -10
-11 -5 -3 -10 -1 -10 4 0 6 5 11 10 11 6 0 10 -2 10 -4z m-918 -38 c-9 -9 -12
-7 -12 12 0 19 3 21 12 12 9 -9 9 -15 0 -24z m1227 29 c-2 -1 -12 -9 -21 -16
-15 -12 -18 -11 -18 3 0 10 8 16 22 16 12 0 19 -1 17 -3z m782 -45 c-13 -24
-15 -72 -3 -72 21 0 92 64 93 83 0 12 3 16 6 10 2 -7 11 -13 19 -13 19 0 18
-16 -1 -24 -8 -3 -20 -17 -25 -31 -6 -17 -17 -25 -33 -25 -12 0 -37 -13 -55
-30 -18 -16 -45 -32 -60 -36 -24 -5 -25 -4 -10 9 21 17 38 59 38 94 0 15 7 35
17 45 20 23 28 17 14 -10z m-1001 -17 c-7 -8 -23 -15 -37 -15 -13 0 -26 -6
-29 -14 -8 -21 -33 -28 -48 -14 -10 9 -8 16 6 30 11 11 27 17 36 14 9 -3 24
-1 32 4 8 5 23 10 34 10 15 0 16 -3 6 -15z m-267 -39 c19 -15 22 -32 7 -41
-12 -7 -51 36 -43 47 6 11 15 9 36 -6z m1489 -11 c3 -14 0 -30 -7 -35 -7 -6
-16 -26 -19 -45 -11 -55 -23 -41 -19 22 4 75 35 114 45 58z m-1002 -9 c0 -8
-4 -17 -9 -21 -12 -7 -24 12 -16 25 9 15 25 12 25 -4z m671 -41 c0 -5 -9 -11
-21 -13 -20 -3 -27 8 -13 22 10 9 34 3 34 -9z m-1121 -34 c0 -12 -20 -25 -27
-18 -7 7 6 27 18 27 5 0 9 -4 9 -9z"/>
<path d="M1308 2983 c7 -3 16 -2 19 1 4 3 -2 6 -13 5 -11 0 -14 -3 -6 -6z"/>
<path d="M1266 2955 c-11 -8 -15 -15 -9 -15 19 0 43 12 43 21 0 13 -12 11 -34
-6z"/>
<path d="M1770 644 c0 -8 5 -12 10 -9 6 4 8 11 5 16 -9 14 -15 11 -15 -7z"/>
<path d="M1920 610 c0 -5 7 -10 15 -10 8 0 15 5 15 10 0 6 -7 10 -15 10 -8 0
-15 -4 -15 -10z"/>
<path d="M1960 495 c0 -8 5 -15 10 -15 6 0 10 7 10 15 0 8 -4 15 -10 15 -5 0
-10 -7 -10 -15z"/>
<path d="M2550 3997 c0 -3 34 -26 76 -51 75 -46 75 -46 72 -20 -2 21 -13 29
-58 45 -81 29 -90 32 -90 26z"/>
<path d="M2620 3996 c0 -2 14 -9 30 -15 24 -8 30 -7 30 5 0 9 -10 14 -30 14
-16 0 -30 -2 -30 -4z"/>
<path d="M2759 3979 c48 -21 55 -20 45 5 -4 11 -18 16 -48 15 l-41 0 44 -20z"/>
<path d="M2827 3978 c3 -13 14 -42 24 -65 11 -25 19 -65 19 -97 0 -34 5 -58
14 -66 45 -37 57 -161 21 -213 -13 -19 -12 -24 11 -55 22 -28 26 -41 21 -77
-5 -34 -2 -48 17 -73 22 -31 40 -34 29 -6 -3 8 1 14 10 14 21 0 18 -42 -3 -47
-16 -5 -54 -104 -42 -113 4 -3 22 -22 40 -43 34 -40 43 -92 20 -115 -10 -10
-7 -22 11 -60 37 -72 37 -74 31 -129 -4 -34 -1 -58 7 -69 7 -10 13 -26 13 -37
0 -14 5 -17 23 -12 12 4 31 15 42 24 11 10 46 35 78 56 33 22 60 48 63 62 4
13 14 23 23 23 10 0 30 14 46 30 21 22 31 27 37 18 13 -21 10 -25 -27 -42 -19
-9 -35 -21 -35 -26 0 -14 18 -21 25 -10 9 14 45 -11 45 -32 0 -17 95 -78 123
-78 9 0 22 6 29 14 12 11 14 8 14 -22 0 -38 -27 -77 -43 -61 -5 5 -36 -29 -76
-83 -57 -78 -67 -98 -62 -122 4 -24 3 -26 -9 -17 -10 8 -16 9 -21 1 -9 -14 4
-32 19 -27 21 8 43 -17 44 -48 0 -17 5 -48 12 -71 11 -35 11 -46 -6 -89 -10
-27 -33 -70 -51 -97 -18 -26 -33 -51 -33 -56 0 -4 15 -23 33 -40 l33 -32 52
64 c29 35 52 68 52 73 0 6 9 18 20 28 17 15 21 16 34 2 13 -13 13 -17 0 -36
-8 -11 -21 -21 -27 -22 -7 0 -34 -27 -60 -60 -53 -66 -53 -70 7 -128 28 -27
39 -32 48 -23 20 20 28 14 21 -19 -5 -29 -4 -30 21 -23 41 10 76 -13 76 -50
l1 -31 14 25 c8 14 14 32 15 41 0 9 7 22 15 29 8 7 15 25 15 41 0 18 7 32 21
40 18 9 20 8 15 -8 -3 -10 -7 -33 -8 -50 -1 -18 -5 -33 -9 -33 -10 0 -59 -89
-59 -106 0 -28 18 -12 84 77 53 72 65 93 56 104 -13 16 -5 35 15 35 18 0 23
29 25 133 0 48 4 95 7 105 7 21 -53 -33 -70 -64 -7 -11 -21 -35 -32 -54 -22
-37 -102 -119 -150 -153 -22 -15 -17 -6 20 35 64 71 85 99 85 115 0 8 11 18
25 23 24 9 36 40 15 40 -5 0 -10 7 -10 15 0 18 26 20 33 3 4 -9 12 -5 26 12
28 35 66 104 52 96 -7 -5 -11 1 -11 16 0 28 19 58 26 41 7 -16 48 6 75 41 15
19 19 34 15 52 -8 31 12 63 25 42 5 -7 6 -29 3 -48 -4 -23 0 -42 10 -55 14
-18 15 10 16 302 0 297 -1 322 -17 316 -13 -5 -15 -3 -9 13 5 10 11 38 13 61
6 43 5 43 -40 63 -34 15 -51 18 -70 11 -21 -8 -30 -5 -52 15 -14 13 -24 28
-21 32 3 5 -8 24 -24 43 -32 38 -36 49 -17 49 6 0 19 -18 28 -39 18 -43 67
-81 54 -42 -3 11 -2 37 4 57 12 42 6 60 -14 44 -17 -14 -31 -7 -38 20 -3 13
-1 18 6 13 6 -4 24 -8 39 -10 32 -3 49 20 29 40 -18 18 -13 29 9 17 15 -8 19
-17 14 -36 -5 -18 0 -31 19 -50 16 -16 31 -23 38 -18 9 5 7 10 -7 16 -13 5 -7
6 18 3 l36 -6 1 366 1 365 -589 0 -589 0 5 -22z m832 -227 c-16 -5 -33 15 -24
30 6 9 12 7 22 -7 9 -13 10 -20 2 -23z m101 19 c0 -5 -4 -10 -10 -10 -5 0 -10
5 -10 10 0 6 5 10 10 10 6 0 10 -4 10 -10z m-33 -46 c-3 -3 -12 -4 -19 -1 -8
3 -5 6 6 6 11 1 17 -2 13 -5z m113 -14 c0 -5 -4 -10 -9 -10 -6 0 -13 5 -16 10
-3 6 1 10 9 10 9 0 16 -4 16 -10z m-29 -53 c-13 -13 -26 -3 -16 12 3 6 11 8
17 5 6 -4 6 -10 -1 -17z m-1 -36 c0 -10 -8 -22 -17 -26 -14 -5 -15 -3 -6 6 6
6 9 18 6 25 -3 8 0 14 6 14 6 0 11 -9 11 -19z m-180 5 c0 -3 -4 -8 -10 -11 -5
-3 -10 -1 -10 4 0 6 5 11 10 11 6 0 10 -2 10 -4z m330 -72 c-3 -5 -12 -9 -20
-9 -11 0 -17 -15 -21 -53 -4 -29 -10 -56 -14 -60 -4 -4 -5 19 -1 50 4 39 2 58
-6 60 -7 3 -5 11 7 26 17 19 22 20 40 8 11 -7 18 -17 15 -22z m-899 10 c10
-13 10 -17 -2 -24 -9 -7 -15 -5 -17 5 -2 8 -8 15 -13 15 -5 0 -9 5 -9 10 0 15
26 12 41 -6z m376 0 c-3 -3 -12 -4 -19 -1 -8 3 -5 6 6 6 11 1 17 -2 13 -5z
m308 -44 c-3 -5 -12 -7 -20 -3 -21 7 -19 13 6 13 11 0 18 -4 14 -10z m133 -41
c-5 -14 -78 -24 -78 -11 0 16 13 22 48 22 21 0 32 -4 30 -11z m-388 -9 c0 -5
-5 -10 -11 -10 -5 0 -7 5 -4 10 3 6 8 10 11 10 2 0 4 -4 4 -10z m407 -87 c-3
-10 -5 -4 -5 12 0 17 2 24 5 18 2 -7 2 -21 0 -30z m-767 17 c0 -5 -7 -10 -16
-10 -8 0 -12 5 -9 10 3 6 10 10 16 10 5 0 9 -4 9 -10z m510 -20 c0 -5 -4 -10
-10 -10 -5 0 -10 5 -10 10 0 6 5 10 10 10 6 0 10 -4 10 -10z m-360 -10 c0 -5
-4 -10 -10 -10 -5 0 -10 5 -10 10 0 6 5 10 10 10 6 0 10 -4 10 -10z m510 -5
c0 -8 -4 -15 -10 -15 -5 0 -10 7 -10 15 0 8 5 15 10 15 6 0 10 -7 10 -15z
m-430 -13 c0 -13 -12 -22 -22 -16 -10 6 -1 24 13 24 5 0 9 -4 9 -8z m380 -28
c0 -9 -7 -14 -17 -12 -25 5 -28 28 -4 28 12 0 21 -6 21 -16z m-730 -54 c0 -5
-5 -10 -11 -10 -5 0 -7 5 -4 10 3 6 8 10 11 10 2 0 4 -4 4 -10z m245 0 c3 -5
-1 -10 -9 -10 -8 0 -18 5 -21 10 -3 6 1 10 9 10 8 0 18 -4 21 -10z m65 -10 c0
-30 -32 -61 -50 -49 -13 8 -12 12 8 28 12 11 22 24 22 30 0 6 5 11 10 11 6 0
10 -9 10 -20z m90 -16 c0 -17 -22 -14 -28 4 -2 7 3 12 12 12 9 0 16 -7 16 -16z
m-200 -24 c0 -11 -7 -20 -15 -20 -17 0 -18 2 -9 24 9 23 24 20 24 -4z m270
-10 c0 -5 -7 -10 -15 -10 -8 0 -15 5 -15 10 0 6 7 10 15 10 8 0 15 -4 15 -10z
m-475 -10 c-3 -5 -10 -10 -16 -10 -5 0 -9 5 -9 10 0 6 7 10 16 10 8 0 12 -4 9
-10z m362 4 c-3 -3 -12 -4 -19 -1 -8 3 -5 6 6 6 11 1 17 -2 13 -5z m300 -26
c-3 -13 -15 -61 -26 -108 -20 -90 -27 -90 -11 1 5 30 12 71 15 92 3 20 11 37
17 37 6 0 8 -10 5 -22z m-592 2 c3 -5 1 -10 -4 -10 -6 0 -11 5 -11 10 0 6 2
10 4 10 3 0 8 -4 11 -10z m359 2 c9 -14 -10 -33 -27 -26 -18 6 -21 16 -10 27
9 9 31 9 37 -1z m-134 -11 c0 -9 -24 -21 -41 -21 -6 0 -7 5 -4 10 4 6 11 8 16
5 5 -4 9 -1 9 4 0 6 5 11 10 11 6 0 10 -4 10 -9z m28 -43 c-5 -32 -28 -35 -28
-4 0 17 5 26 16 26 10 0 14 -7 12 -22z m122 -9 c0 -6 -4 -7 -10 -4 -5 3 -10
11 -10 16 0 6 5 7 10 4 6 -3 10 -11 10 -16z m-137 -59 c21 0 28 -3 21 -10 -12
-12 -104 -2 -104 11 0 5 6 9 14 9 8 0 17 8 22 18 7 15 8 14 11 -5 4 -18 11
-23 36 -23z m544 8 c-3 -8 -6 -5 -6 6 -1 11 2 17 5 13 3 -3 4 -12 1 -19z
m-766 -11 c-13 -13 -26 -3 -16 12 3 6 11 8 17 5 6 -4 6 -10 -1 -17z m829 3 c0
-5 -7 -10 -15 -10 -8 0 -15 5 -15 10 0 6 7 10 15 10 8 0 15 -4 15 -10z m-448
-32 c-15 -15 -26 -4 -18 18 5 13 9 15 18 6 9 -9 9 -15 0 -24z m38 -8 c0 -5 -2
-10 -4 -10 -3 0 -8 5 -11 10 -3 6 -1 10 4 10 6 0 11 -4 11 -10z m-170 -62 c0
-6 -7 -16 -17 -23 -13 -10 -20 -8 -35 7 -22 22 -17 38 6 19 11 -9 15 -8 20 4
6 17 26 12 26 -7z m-190 2 c0 -5 -2 -10 -4 -10 -3 0 -8 5 -11 10 -3 6 -1 10 4
10 6 0 11 -4 11 -10z m670 -54 c0 -8 -4 -17 -9 -21 -12 -7 -24 12 -16 25 9 15
25 12 25 -4z m-215 -106 c3 -5 1 -10 -4 -10 -6 0 -11 5 -11 10 0 6 2 10 4 10
3 0 8 -4 11 -10z m-85 -20 c0 -5 -4 -10 -10 -10 -5 0 -10 5 -10 10 0 6 5 10
10 10 6 0 10 -4 10 -10z m270 6 c0 -15 -14 -35 -21 -30 -15 9 -10 34 6 34 8 0
15 -2 15 -4z m-150 -36 c0 -5 -7 -10 -15 -10 -8 0 -15 5 -15 10 0 6 7 10 15
10 8 0 15 -4 15 -10z m293 -52 c-4 -25 -10 -38 -20 -38 -11 0 -13 5 -8 18 4 9
10 30 13 45 7 42 20 19 15 -25z m-53 18 c0 -3 -4 -8 -10 -11 -5 -3 -10 -1 -10
4 0 6 5 11 10 11 6 0 10 -2 10 -4z m-280 -22 c0 -8 -4 -12 -10 -9 -5 3 -10 10
-10 16 0 5 5 9 10 9 6 0 10 -7 10 -16z m47 -30 c-9 -9 -28 6 -21 18 4 6 10 6
17 -1 6 -6 8 -13 4 -17z m115 -46 c-6 -6 -15 -7 -21 -4 -14 9 -14 36 -1 36 6
0 10 8 11 18 0 10 5 6 11 -11 7 -20 7 -32 0 -39z m111 -21 c7 -20 2 -37 -13
-37 -5 0 -15 13 -23 28 -13 26 -12 28 7 28 12 -1 24 -9 29 -19z m37 3 c0 -5
-4 -10 -10 -10 -5 0 -10 5 -10 10 0 6 5 10 10 10 6 0 10 -4 10 -10z m-320
-132 c0 -16 5 -28 11 -28 5 0 7 -4 4 -10 -3 -5 -15 -10 -25 -10 -10 0 -20 -3
-23 -7 -2 -5 -2 -1 1 7 2 8 7 35 9 58 6 47 23 39 23 -10z m294 5 c-9 -38 -13
-43 -32 -43 -10 0 -28 -7 -40 -16 -18 -12 -20 -19 -12 -29 16 -19 3 -40 -15
-25 -9 7 -16 6 -25 -5 -16 -19 -40 -19 -40 0 0 23 -14 18 -32 -12 l-17 -28 6
37 c5 33 3 37 -18 40 -28 4 -33 33 -6 33 10 0 24 8 31 18 20 26 33 21 33 -13
0 -17 7 -38 15 -46 14 -14 19 -13 50 15 19 17 46 46 59 66 29 43 52 47 43 8z
m-394 -28 c0 -8 -11 -22 -25 -31 -20 -13 -28 -14 -40 -4 -22 18 -18 30 9 30
14 0 28 5 31 10 9 15 25 12 25 -5z m-10 -74 c0 -5 -7 -14 -15 -21 -16 -14 -18
-10 -9 14 6 17 24 22 24 7z m90 -83 c0 -7 -4 -19 -9 -27 -11 -17 -25 3 -17 24
7 18 26 20 26 3z m73 -3 c-6 -17 -25 -15 -31 3 -2 7 5 12 17 12 14 0 19 -5 14
-15z m-128 -35 c-3 -5 -16 -10 -28 -9 -21 0 -21 1 -2 9 28 12 37 12 30 0z m-8
-46 c6 -20 -14 -35 -40 -28 -25 6 -35 23 -21 37 9 8 58 1 61 -9z m110 -16 c-3
-8 -6 -5 -6 6 -1 11 2 17 5 13 3 -3 4 -12 1 -19z m33 -58 c0 -5 -4 -10 -10
-10 -5 0 -10 5 -10 10 0 6 5 10 10 10 6 0 10 -4 10 -10z m-70 -81 c0 -5 -7 -6
-15 -3 -9 4 -15 0 -15 -9 0 -22 -17 -30 -37 -19 -15 9 -14 11 5 23 13 8 22 24
22 39 l1 25 19 -24 c11 -13 20 -27 20 -32z m240 26 c0 -8 -7 -15 -15 -15 -8 0
-15 7 -15 15 0 8 7 15 15 15 8 0 15 -7 15 -15z m-152 -17 c-2 -6 -10 -14 -16
-16 -7 -2 -10 2 -6 12 7 18 28 22 22 4z m102 -88 c0 -5 -4 -10 -10 -10 -5 0
-10 5 -10 10 0 6 5 10 10 10 6 0 10 -4 10 -10z"/>
<path d="M2720 3924 c0 -23 53 -84 73 -84 35 0 -12 92 -53 103 -16 4 -20 0
-20 -19z"/>
<path d="M2838 3874 c-3 -5 -1 -20 4 -34 6 -14 12 -20 14 -14 6 15 -11 60 -18
48z"/>
<path d="M2742 3833 c2 -9 9 -18 16 -21 18 -6 15 25 -4 32 -11 4 -14 1 -12
-11z"/>
<path d="M2770 3795 c-7 -9 -10 -25 -5 -42 7 -31 17 -21 29 30 7 30 -4 36 -24
12z"/>
<path d="M2797 3741 c-19 -56 -21 -71 -7 -71 14 0 51 86 44 104 -10 26 -18 19
-37 -33z"/>
<path d="M2713 3727 c-11 -18 -24 -42 -28 -55 -7 -23 11 -82 24 -82 4 0 17 21
29 46 17 33 21 55 16 80 -9 46 -16 48 -41 11z"/>
<path d="M2850 3725 c0 -16 -9 -50 -20 -74 -30 -66 -27 -99 12 -116 40 -16 45
-14 59 34 15 52 4 119 -26 156 l-24 30 -1 -30z"/>
<path d="M2746 3616 c-10 -21 -15 -40 -12 -43 7 -8 38 57 33 70 -3 7 -12 -5
-21 -27z"/>
<path d="M2775 3560 c-3 -5 -1 -10 4 -10 6 0 11 5 11 10 0 6 -2 10 -4 10 -3 0
-8 -4 -11 -10z"/>
<path d="M2752 3509 c3 -21 53 -67 62 -58 12 12 -9 58 -30 68 -34 15 -36 14
-32 -10z"/>
<path d="M2830 3486 c0 -9 5 -16 10 -16 6 0 10 4 10 9 0 6 -4 13 -10 16 -5 3
-10 -1 -10 -9z"/>
<path d="M2730 3472 c0 -13 47 -62 60 -62 19 0 10 15 -25 43 -19 15 -35 24
-35 19z"/>
<path d="M2857 3463 c-13 -13 -7 -40 14 -59 17 -16 22 -16 29 -4 24 38 -14 93
-43 63z m23 -33 c0 -5 -2 -10 -4 -10 -3 0 -8 5 -11 10 -3 6 -1 10 4 10 6 0 11
-4 11 -10z"/>
<path d="M2782 3368 c-14 -14 -16 -64 -4 -72 14 -9 65 51 59 68 -7 19 -38 21
-55 4z"/>
<path d="M2870 3336 c0 -22 17 -28 24 -10 9 22 8 24 -9 24 -8 0 -15 -6 -15
-14z"/>
<path d="M2901 3294 c-13 -30 -14 -54 -1 -74 9 -13 11 -13 20 0 12 18 13 87 1
94 -4 3 -13 -6 -20 -20z"/>
<path d="M2811 3291 c-9 -16 -7 -23 11 -35 26 -19 41 -8 36 25 -4 30 -33 36
-47 10z"/>
<path d="M3880 3205 c-13 -34 -3 -55 31 -62 16 -3 32 -10 35 -14 12 -20 32 -6
43 30 16 55 9 66 -50 68 -45 2 -51 0 -59 -22z"/>
<path d="M2923 3125 c4 -9 7 -19 7 -21 0 -2 7 -4 15 -4 22 0 18 18 -7 31 -18
10 -20 9 -15 -6z"/>
<path d="M2880 3111 c0 -10 8 -25 17 -32 15 -12 16 -12 10 4 -4 10 -7 25 -7
33 0 8 -4 14 -10 14 -5 0 -10 -8 -10 -19z"/>
<path d="M2872 3054 c10 -10 20 -16 22 -13 3 3 -5 11 -17 18 -21 13 -21 12 -5
-5z"/>
<path d="M2920 2976 c0 -9 5 -16 10 -16 6 0 10 4 10 9 0 6 -4 13 -10 16 -5 3
-10 -1 -10 -9z"/>
<path d="M2970 2950 c0 -19 11 -26 23 -14 8 8 -3 34 -14 34 -5 0 -9 -9 -9 -20z"/>
<path d="M2935 2910 c3 -5 8 -10 11 -10 2 0 4 5 4 10 0 6 -5 10 -11 10 -5 0
-7 -4 -4 -10z"/>
<path d="M2926 2865 c4 -8 10 -12 15 -9 14 8 10 24 -6 24 -9 0 -12 -6 -9 -15z"/>
<path d="M2990 2840 c0 -5 5 -10 10 -10 6 0 10 5 10 10 0 6 -4 10 -10 10 -5 0
-10 -4 -10 -10z"/>
<path d="M3255 2812 c-12 -9 -24 -25 -28 -35 -3 -9 -10 -16 -14 -15 -12 4 -83
-46 -83 -58 0 -17 108 -87 125 -80 10 3 15 -1 15 -13 0 -21 26 -36 35 -21 12
19 26 10 19 -12 -3 -13 -8 -25 -10 -27 -3 -3 -75 47 -154 107 -40 30 -68 36
-73 15 -11 -43 -7 -100 8 -113 8 -7 15 -21 15 -30 0 -28 11 -50 25 -50 8 0 10
9 7 25 -5 26 3 31 27 16 8 -5 11 -16 8 -25 -5 -13 0 -16 26 -16 18 0 48 -4 67
-10 26 -7 39 -6 57 5 29 19 29 31 2 38 -33 9 -17 32 22 32 27 0 40 7 62 34 32
40 35 52 7 26 -11 -10 -23 -16 -26 -12 -3 3 18 28 46 55 29 28 50 56 48 62 -2
7 -28 25 -58 41 -30 15 -62 34 -70 41 -20 18 -60 38 -74 38 -6 -1 -20 -8 -31
-18z m62 -112 c3 -11 9 -20 14 -20 5 0 9 -4 9 -10 0 -5 -8 -10 -18 -10 -19 0
-46 43 -35 54 12 12 25 6 30 -14z m123 0 c0 -5 -4 -10 -10 -10 -5 0 -10 5 -10
10 0 6 5 10 10 10 6 0 10 -4 10 -10z m-135 -70 c3 -5 -1 -10 -9 -10 -9 0 -16
5 -16 10 0 6 4 10 9 10 6 0 13 -4 16 -10z m-129 -37 c-11 -11 -19 6 -11 24 8
17 8 17 12 0 3 -10 2 -21 -1 -24z m54 -17 c0 -3 -4 -8 -10 -11 -5 -3 -10 -1
-10 4 0 6 5 11 10 11 6 0 10 -2 10 -4z"/>
<path d="M3010 2810 c0 -5 5 -10 10 -10 6 0 10 5 10 10 0 6 -4 10 -10 10 -5 0
-10 -4 -10 -10z"/>
<path d="M2950 2730 c0 -5 5 -10 10 -10 6 0 10 5 10 10 0 6 -4 10 -10 10 -5 0
-10 -4 -10 -10z"/>
<path d="M2929 2668 l-24 -19 25 7 c42 11 55 20 38 26 -8 3 -25 -3 -39 -14z"/>
<path d="M2946 2645 c-15 -8 -39 -15 -53 -15 -13 0 -37 -12 -52 -27 -15 -16
-32 -28 -37 -29 -15 -1 -244 -387 -244 -411 0 -29 7 -29 158 4 115 24 123 28
128 52 14 65 38 110 85 159 28 28 56 52 61 52 5 0 16 16 24 35 8 19 20 35 27
35 6 0 1 9 -13 20 -23 18 -26 18 -37 3 -7 -9 -10 -20 -7 -24 3 -5 0 -9 -5 -9
-14 0 -14 47 -1 55 6 4 8 21 4 40 -3 18 -1 42 5 54 14 26 0 28 -43 6z m-175
-228 c-13 -13 -26 -3 -16 12 3 6 11 8 17 5 6 -4 6 -10 -1 -17z"/>
<path d="M3120 2462 c-7 -3 -7 -8 1 -18 14 -17 22 -111 9 -119 -5 -3 -2 -18 6
-33 7 -15 14 -34 14 -44 0 -16 86 -108 102 -108 4 0 8 9 8 20 0 13 9 22 25 26
28 7 33 38 14 93 -7 20 -8 36 -1 44 5 6 12 33 15 59 7 49 -3 61 -41 52 -14 -4
-21 0 -25 16 -5 19 -11 21 -61 18 -31 -1 -60 -4 -66 -6z m84 -29 c8 -20 -14
-36 -31 -22 -14 12 -6 39 12 39 7 0 16 -8 19 -17z m-34 -118 c-7 -8 -17 -15
-23 -15 -5 0 -2 9 8 20 21 23 35 19 15 -5z"/>
<path d="M2980 2406 c-45 -30 -87 -84 -105 -137 -23 -65 -21 -71 23 -63 20 4
46 11 56 16 11 6 38 12 60 13 23 2 50 6 61 8 11 3 23 6 26 6 13 2 -9 69 -29
91 -11 12 -23 37 -27 56 -7 40 -17 41 -65 10z"/>
<path d="M3336 2383 c-8 -38 -4 -223 4 -223 13 0 50 114 50 152 0 26 -25 84
-40 93 -5 3 -11 -7 -14 -22z"/>
<path d="M3895 2290 c-10 -11 -15 -23 -12 -27 4 -3 2 -12 -4 -19 -7 -8 -12
-70 -14 -149 -2 -109 0 -137 11 -142 9 -3 12 -13 8 -29 -5 -20 -2 -24 15 -24
12 0 21 -6 21 -15 0 -8 4 -15 8 -15 5 0 14 -11 20 -24 5 -13 20 -26 31 -29 21
-5 21 -2 21 129 0 114 -2 133 -15 128 -9 -4 -15 0 -15 10 0 9 -4 16 -9 16 -19
0 -15 46 6 79 24 35 30 71 13 71 -5 0 -10 11 -10 24 0 39 -46 49 -75 16z m40
-91 c0 -7 -8 -15 -17 -17 -18 -3 -25 18 -11 32 10 10 28 1 28 -15z"/>
<path d="M3036 2205 c-16 -9 -37 -15 -45 -14 -9 1 -42 -1 -73 -5 -51 -7 -58
-11 -58 -30 0 -12 13 -43 29 -68 31 -48 89 -84 156 -95 32 -5 40 -2 56 18 17
22 18 23 36 6 16 -14 25 -15 57 -6 43 12 57 36 31 55 -15 11 -16 16 -5 29 11
14 8 22 -25 55 -21 22 -42 37 -46 34 -4 -2 -10 5 -14 16 -8 25 -56 27 -99 5z"/>
<path d="M3372 2183 c-6 -20 -7 -32 -2 -27 10 10 25 64 18 64 -3 0 -10 -16
-16 -37z"/>
<path d="M2713 2145 c-56 -12 -110 -26 -120 -30 -10 -5 -22 -7 -26 -6 -5 1
-20 -8 -34 -19 -14 -11 -31 -20 -37 -20 -22 0 -79 -68 -72 -85 4 -13 2 -15
-14 -10 -25 8 -121 -89 -113 -114 4 -13 3 -13 -5 -2 -8 11 -22 2 -66 -43 -31
-32 -56 -62 -56 -67 0 -5 -4 -9 -10 -9 -33 0 29 -76 70 -85 16 -3 34 -13 41
-21 10 -12 14 -12 26 3 8 10 12 13 9 6 -4 -6 0 -14 6 -16 10 -4 10 -8 -2 -16
-12 -8 -12 -13 5 -31 10 -11 42 -34 70 -50 52 -30 53 -30 136 -19 46 6 92 15
101 20 9 5 45 11 78 14 67 5 105 26 140 75 22 30 13 43 -10 15 -7 -8 -18 -15
-25 -15 -7 0 -15 -7 -19 -15 -3 -8 -13 -15 -23 -15 -16 0 -16 2 3 18 12 9 24
24 27 33 3 9 19 19 36 22 47 10 165 131 156 160 -2 7 12 25 31 40 26 22 34 25
34 13 0 -20 10 -20 40 1 44 31 146 123 136 123 -3 0 -15 -4 -28 -9 -50 -20
-64 -24 -78 -22 -8 0 -26 -15 -40 -35 -13 -20 -26 -32 -28 -26 -2 6 4 21 12
35 16 23 15 23 -33 36 -100 25 -156 78 -185 174 -6 21 -6 21 -133 -8z m-103
-105 c0 -11 -2 -20 -4 -20 -2 0 -6 9 -9 20 -3 11 -1 20 4 20 5 0 9 -9 9 -20z
m-21 -30 c5 -16 6 -30 2 -30 -5 0 -11 8 -15 18 -3 9 -9 23 -12 30 -3 6 -1 12
4 12 6 0 15 -13 21 -30z m-86 -57 c6 -11 -31 -44 -38 -34 -8 14 6 41 20 41 8
0 16 -3 18 -7z m97 -4 c0 -5 4 -8 9 -5 5 3 11 -1 15 -9 9 -26 -11 -26 -28 0
-9 14 -12 25 -6 25 5 0 10 -5 10 -11z m-85 -29 c3 -5 1 -10 -4 -10 -6 0 -11 5
-11 10 0 6 2 10 4 10 3 0 8 -4 11 -10z m93 -17 c10 -9 10 -18 3 -30 -9 -15
-10 -16 -11 -2 0 9 -8 24 -19 33 -17 16 -19 16 -25 0 -4 -9 -9 -14 -13 -11 -3
4 0 13 6 21 13 16 37 11 59 -11z m347 17 c3 -5 1 -10 -4 -10 -6 0 -11 5 -11
10 0 6 2 10 4 10 3 0 8 -4 11 -10z m-445 -40 c0 -5 -5 -10 -11 -10 -5 0 -7 5
-4 10 3 6 8 10 11 10 2 0 4 -4 4 -10z m127 -12 c-3 -8 -6 -5 -6 6 -1 11 2 17
5 13 3 -3 4 -12 1 -19z m349 -3 c-11 -8 -25 -15 -30 -15 -6 1 0 7 14 15 32 19
40 18 16 0z m-376 -23 c0 -14 -23 -32 -42 -32 -10 0 -18 5 -18 10 0 6 7 10 15
10 8 0 15 5 15 10 0 6 7 10 15 10 8 0 15 -4 15 -8z m-100 -53 c0 -5 5 -7 10
-4 6 3 15 3 21 -1 8 -4 7 -9 -2 -14 -7 -5 -20 -3 -31 3 -20 13 -24 27 -8 27 6
0 10 -5 10 -11z m-68 -21 c-7 -7 -12 -8 -12 -2 0 6 3 14 7 17 3 4 9 5 12 2 2
-3 -1 -11 -7 -17z m428 3 c0 -6 -4 -13 -10 -16 -5 -3 -10 1 -10 9 0 9 5 16 10
16 6 0 10 -4 10 -9z m-260 -11 c0 -5 -2 -10 -4 -10 -3 0 -8 5 -11 10 -3 6 -1
10 4 10 6 0 11 -4 11 -10z m140 6 c0 -11 -19 -15 -25 -6 -3 5 1 10 9 10 9 0
16 -2 16 -4z m-190 -36 c0 -5 -7 -10 -16 -10 -8 0 -12 5 -9 10 3 6 10 10 16
10 5 0 9 -4 9 -10z m193 4 c9 -10 -4 -34 -19 -34 -8 0 -14 6 -14 13 0 22 19
35 33 21z m-70 -11 c12 -21 18 -73 8 -73 -6 0 -11 9 -11 20 0 11 -7 20 -15 20
-8 0 -15 6 -15 13 0 23 23 36 33 20z m-403 -13 c0 -5 -5 -10 -11 -10 -5 0 -7
5 -4 10 3 6 8 10 11 10 2 0 4 -4 4 -10z m97 -22 c-2 -7 -11 -12 -21 -10 -9 2
-16 -4 -16 -13 0 -17 -16 -20 -25 -5 -3 5 7 16 22 24 35 19 46 20 40 4z m235
-18 c-6 -16 -11 -20 -16 -11 -4 6 -2 19 5 27 16 20 21 12 11 -16z m162 -13
c-3 -9 -17 -23 -30 -32 -22 -14 -24 -14 -24 2 0 10 12 26 27 35 31 19 36 18
27 -5z m-350 -18 c-3 -5 -10 -7 -15 -3 -5 3 -7 10 -3 15 3 5 10 7 15 3 5 -3 7
-10 3 -15z m96 17 c0 -2 -7 -9 -15 -16 -12 -10 -15 -10 -15 4 0 9 7 16 15 16
8 0 15 -2 15 -4z m-60 -46 c-11 -20 -30 -28 -30 -12 0 11 22 32 32 32 5 0 4
-9 -2 -20z m-77 1 c4 -1 7 -5 7 -10 0 -4 -11 -6 -25 -3 -14 2 -25 8 -25 12 0
5 8 7 18 5 9 -2 20 -4 25 -4z m187 -31 c0 -5 -7 -10 -16 -10 -8 0 -12 5 -9 10
3 6 10 10 16 10 5 0 9 -4 9 -10z"/>
<path d="M2483 2125 c-9 -25 4 -29 17 -6 7 15 7 21 0 21 -6 0 -13 -7 -17 -15z"/>
<path d="M3280 2130 c-13 -8 -13 -11 2 -27 21 -20 43 -6 32 20 -7 19 -13 21
-34 7z"/>
<path d="M3986 2125 c-3 -8 -1 -15 4 -15 6 0 10 7 10 15 0 8 -2 15 -4 15 -2 0
-6 -7 -10 -15z"/>
<path d="M3260 2060 c0 -5 5 -10 10 -10 6 0 10 5 10 10 0 6 -4 10 -10 10 -5 0
-10 -4 -10 -10z"/>
<path d="M3266 2019 c-27 -21 -27 -43 -1 -32 22 8 18 -10 -5 -30 -14 -12 -20
-30 -21 -59 0 -36 -2 -39 -9 -20 -11 27 -34 28 -67 2 -14 -11 -31 -20 -38 -20
-7 0 -26 -15 -43 -34 -16 -19 -40 -37 -53 -40 -22 -7 -22 -6 4 11 25 16 37 43
19 43 -13 0 -72 -65 -72 -79 0 -7 -24 -36 -54 -65 -64 -61 -116 -132 -116
-158 0 -22 18 -59 60 -123 11 -16 21 -33 22 -36 2 -3 14 -8 28 -11 20 -5 31 1
54 29 26 31 28 37 17 56 -12 18 -10 22 10 38 13 10 26 16 30 13 4 -2 11 2 16
9 12 14 25 87 16 87 -3 0 -25 -16 -49 -35 -30 -25 -41 -40 -37 -54 4 -16 1
-19 -15 -14 -29 7 -19 23 54 83 35 30 64 60 64 67 0 7 8 13 18 13 27 0 42 20
42 56 0 18 5 36 10 39 6 3 10 -1 10 -9 0 -9 4 -16 8 -16 14 0 52 58 52 79 0
12 12 26 29 35 32 17 84 66 108 103 15 22 14 25 -8 49 -39 42 -54 46 -83 23z
m-86 -229 c0 -5 -4 -10 -10 -10 -5 0 -10 5 -10 10 0 6 5 10 10 10 6 0 10 -4
10 -10z m-94 -39 c-4 -6 -17 -11 -28 -11 -21 0 -21 1 -3 20 19 21 44 13 31 -9z
m4 -52 c0 -10 -7 -19 -15 -19 -15 0 -21 31 -9 43 11 10 24 -3 24 -24z m40 7
c0 -3 -4 -8 -10 -11 -5 -3 -10 -1 -10 4 0 6 5 11 10 11 6 0 10 -2 10 -4z"/>
<path d="M2090 2020 c0 -5 5 -10 11 -10 5 0 7 5 4 10 -3 6 -8 10 -11 10 -2 0
-4 -4 -4 -10z"/>
<path d="M3175 1933 c-29 -35 -29 -36 -5 -23 25 13 49 39 50 53 0 15 -16 4
-45 -30z"/>
<path d="M3806 1866 c-27 -36 -33 -56 -16 -56 6 0 10 -12 10 -26 0 -23 -3 -25
-24 -20 -18 4 -34 -4 -70 -35 -48 -43 -57 -74 -21 -74 16 0 19 -6 17 -27 -4
-42 89 -188 120 -188 16 0 19 -5 14 -24 -3 -14 -1 -28 4 -31 6 -4 8 -10 6 -14
-3 -4 0 -13 5 -21 7 -12 11 -12 17 -2 5 7 16 10 26 6 11 -4 22 0 31 12 22 28
19 -2 -5 -53 -19 -44 -36 -59 -25 -23 5 16 2 20 -15 20 -20 0 -22 -4 -16 -42
3 -24 8 -74 11 -112 2 -38 6 -71 8 -73 2 -1 13 6 25 17 26 24 29 50 6 50 -11
0 -13 6 -9 19 3 11 1 23 -6 26 -16 11 9 25 46 25 34 0 55 32 55 86 0 18 -6 34
-12 37 -10 4 -10 7 0 18 6 7 12 29 12 48 l0 36 -25 -28 c-28 -29 -55 -36 -55
-13 0 7 7 19 15 26 19 16 19 29 -1 51 -24 26 -10 63 31 88 l35 20 0 86 c0 67
-3 85 -14 85 -8 0 -16 10 -18 23 -2 18 -9 22 -35 21 -28 -2 -33 1 -33 22 0 20
-44 74 -61 74 -4 0 -18 -15 -33 -34z m61 -130 c-3 -7 -1 -19 3 -26 5 -8 6 -18
3 -23 -3 -5 -13 4 -23 20 -12 19 -14 32 -8 40 12 15 31 6 25 -11z m81 -123
c-34 -36 -58 -25 -58 27 0 24 39 31 63 11 16 -14 16 -16 -5 -38z m-96 4 c-6
-12 -18 -48 -27 -81 -9 -32 -19 -56 -22 -53 -3 3 -7 31 -9 61 -2 50 -1 56 17
56 11 0 22 7 24 15 14 45 17 50 22 37 3 -8 1 -24 -5 -35z"/>
<path d="M3570 1823 c1 -17 48 -65 54 -55 11 19 -12 62 -34 62 -11 0 -20 -3
-20 -7z"/>
<path d="M3532 1779 c2 -6 8 -10 13 -10 5 0 11 4 13 10 2 6 -4 11 -13 11 -9 0
-15 -5 -13 -11z"/>
<path d="M1980 1730 c0 -5 4 -10 9 -10 6 0 13 5 16 10 3 6 -1 10 -9 10 -9 0
-16 -4 -16 -10z"/>
<path d="M3160 1655 c-13 -14 -21 -27 -18 -30 2 -3 15 6 28 20 13 14 21 27 18
30 -2 3 -15 -6 -28 -20z"/>
<path d="M3605 1659 c-4 -6 -5 -12 -2 -15 2 -3 7 2 10 11 7 17 1 20 -8 4z"/>
<path d="M3633 1642 c-5 -4 -13 -28 -16 -53 -5 -39 0 -61 32 -141 62 -151 94
-206 122 -208 13 0 40 73 30 83 -5 5 -7 23 -4 39 3 17 0 35 -8 46 -8 9 -27 43
-44 75 -17 34 -36 57 -45 57 -23 0 -32 11 -20 26 13 15 -31 86 -47 76z m127
-313 c0 -5 -4 -9 -10 -9 -5 0 -10 7 -10 16 0 8 5 12 10 9 6 -3 10 -10 10 -16z"/>
<path d="M3983 1537 c-16 -34 -17 -57 -3 -57 15 0 22 23 18 56 l-3 29 -12 -28z"/>
<path d="M3816 1268 c-21 -29 -20 -35 4 -41 17 -4 20 0 20 29 0 40 -4 42 -24
12z"/>
<path d="M3777 1188 c-55 -86 -120 -211 -133 -255 -9 -29 -20 -53 -25 -53 -5
0 -9 -8 -9 -18 0 -9 -10 -23 -21 -30 -17 -11 -20 -20 -16 -46 4 -28 2 -34 -21
-42 -37 -14 -60 -77 -38 -100 9 -8 16 -20 16 -25 0 -15 -33 -24 -38 -11 -6 19
-22 14 -22 -7 0 -10 -6 -24 -14 -30 -8 -7 -18 -27 -21 -44 -4 -18 -9 -41 -12
-52 -4 -16 2 -13 29 13 19 17 42 32 53 32 39 0 178 83 183 110 2 15 -42 42
-53 32 -3 -3 -5 -14 -5 -25 0 -10 -10 -27 -22 -38 -55 -45 -67 2 -13 50 26 22
35 39 35 61 0 19 -5 30 -14 30 -8 0 -18 5 -21 10 -4 7 8 10 34 9 31 -2 46 3
66 21 14 13 25 31 25 39 0 9 14 36 30 61 16 25 30 49 30 53 0 5 11 23 24 40
13 18 31 49 39 69 14 34 14 36 -1 31 -9 -4 -23 -14 -30 -22 -11 -14 -13 -10
-8 24 3 22 6 50 6 63 0 12 5 22 10 22 6 0 10 -9 10 -19 0 -25 16 -36 24 -16 6
17 -12 75 -24 75 -5 0 -15 3 -23 6 -10 3 -21 -4 -30 -18z m13 -145 c0 -5 -4
-15 -10 -23 -11 -18 -25 -7 -17 15 6 15 27 21 27 8z m-54 -82 c-10 -16 -36
-13 -36 3 0 17 21 27 34 16 4 -5 5 -13 2 -19z m-186 -285 c0 -16 -18 -31 -27
-22 -8 8 5 36 17 36 5 0 10 -6 10 -14z"/>
<path d="M3719 1173 c-17 -19 -130 -193 -169 -258 -13 -22 -34 -51 -47 -64
-39 -40 -24 -75 20 -46 27 17 87 105 87 128 0 8 7 20 15 27 19 16 117 208 113
222 -2 5 -11 1 -19 -9z"/>
<path d="M3948 1175 c-11 -12 6 -58 23 -62 10 -3 20 -15 22 -27 2 -11 5 5 6
37 1 53 0 57 -22 57 -13 0 -26 -2 -29 -5z"/>
<path d="M3897 1053 c-16 -19 -28 -165 -14 -179 4 -4 15 0 25 9 10 10 25 17
34 17 32 0 58 44 58 98 0 49 -11 67 -24 40 -4 -7 -4 -3 -2 10 4 19 0 22 -28
22 -19 0 -40 -8 -49 -17z"/>
<path d="M3820 943 l-31 -58 17 -52 c13 -38 23 -53 36 -53 15 0 18 8 17 43 -1
23 1 70 6 103 10 83 -5 89 -45 17z"/>
<path d="M3844 728 c3 -13 6 -27 7 -33 0 -5 4 -1 8 10 9 23 4 45 -11 45 -6 0
-8 -10 -4 -22z"/>
<path d="M3055 21 c-6 -5 -23 -11 -40 -14 -19 -2 -11 -5 23 -6 40 -1 52 2 52
14 0 17 -21 20 -35 6z"/>
</g>
</svg>
